<!DOCTYPE svg PUBLIC "-//W3C//DTD SVG 20010904//EN" "http://www.w3.org/TR/2001/REC-SVG-20010904/DTD/svg10.dtd">
<svg version="1.0" xmlns="http://www.w3.org/2000/svg" width="1600px" height="1600px" viewBox="0 0 16000 16000" preserveAspectRatio="xMidYMid meet">
<g id="layer101" fill="#ffffff" stroke="none">
 <path d="M8335 15984 c-378 -48 -642 -111 -959 -228 l-69 -26 -3248 0 -3249 0 0 -7865 0 -7865 5840 0 5840 0 0 2304 0 2304 138 6 c232 11 497 52 735 111 148 38 184 48 207 57 14 6 39 14 55 18 35 10 87 28 132 47 17 7 34 13 38 13 4 0 23 7 43 16 21 9 46 20 57 24 44 18 312 152 340 170 17 11 39 24 50 30 24 12 58 33 65 40 15 15 71 50 80 50 5 0 10 4 10 9 0 4 18 20 40 35 42 28 58 40 144 116 98 86 236 232 236 251 0 5 4 9 10 9 5 0 21 20 36 45 14 25 30 45 35 45 5 0 9 5 9 11 0 6 13 31 30 56 16 24 30 48 30 53 0 5 6 15 13 22 7 7 27 49 46 93 18 44 39 93 47 108 8 16 14 36 14 44 0 8 6 36 14 62 8 25 20 66 27 91 11 36 14 822 16 4035 3 3942 3 3991 -17 4085 -33 164 -97 328 -180 465 -16 28 -35 60 -41 73 -7 12 -16 22 -21 22 -4 0 -8 6 -8 14 0 8 -3 16 -7 18 -5 2 -21 21 -38 43 -50 68 -173 197 -272 286 -49 44 -232 179 -243 179 -5 0 -10 4 -10 9 0 5 -13 14 -30 21 -16 7 -30 15 -30 19 0 3 -19 15 -43 26 -23 11 -44 22 -47 26 -5 6 -21 14 -140 73 -105 53 -167 80 -247 110 -24 9 -61 23 -83 31 -87 33 -117 43 -170 58 -262 77 -475 119 -765 153 -112 13 -213 15 -505 12 -210 -3 -401 -10 -450 -17 -244 -35 -440 -74 -600 -119 -81 -22 -347 -110 -367 -121 -10 -5 -43 -19 -73 -31 -30 -12 -92 -40 -137 -62 l-81 -39 -59 30 c-32 16 -76 37 -98 46 -69 29 -109 47 -138 61 -16 8 -36 14 -46 14 -9 0 -21 4 -27 8 -10 10 -199 71 -289 95 -254 66 -376 89 -645 122 -165 20 -783 19 -945 -1z m750 -544 c193 -16 407 -48 558 -86 145 -36 184 -47 215 -60 18 -8 39 -14 47 -14 8 0 29 -6 47 -14 18 -8 71 -29 118 -46 103 -39 350 -160 350 -172 0 -4 5 -8 11 -8 16 0 168 -102 239 -161 232 -191 366 -390 425 -632 9 -38 15 -71 13 -73 -2 -2 -19 10 -37 26 -18 17 -36 30 -42 30 -5 0 -9 4 -9 8 0 10 -96 82 -110 82 -5 0 -10 4 -10 9 0 5 -21 22 -46 38 -26 15 -58 36 -73 45 -14 10 -33 21 -41 25 -8 3 -33 18 -55 32 -56 36 -291 151 -307 151 -8 0 -18 4 -24 10 -10 10 -160 67 -210 79 -18 5 -37 11 -43 15 -6 4 -32 13 -58 20 -27 8 -73 21 -103 31 -30 9 -73 20 -95 24 -22 5 -60 13 -85 19 -524 127 -1223 137 -1770 26 -168 -34 -229 -49 -370 -91 -98 -29 -274 -90 -340 -118 -67 -27 -290 -136 -325 -158 -11 -6 -50 -31 -87 -54 -37 -24 -70 -43 -73 -43 -3 0 -11 -5 -18 -10 -7 -6 -53 -41 -103 -78 -49 -37 -103 -79 -119 -94 -16 -15 -30 -26 -32 -25 -5 5 26 153 39 187 79 202 228 391 428 544 54 42 103 76 109 76 6 0 11 4 11 9 0 5 9 13 20 16 11 3 26 12 32 18 35 33 370 197 401 197 7 0 17 4 22 9 10 9 187 67 290 96 373 104 819 146 1210 115z m3530 -1 c83 -6 184 -17 226 -25 42 -8 86 -14 99 -14 30 0 234 -45 350 -77 69 -20 245 -77 285 -93 17 -7 39 -16 50 -20 137 -52 545 -285 545 -312 0 -4 5 -8 12 -8 15 0 257 -242 258 -257 0 -7 4 -13 8 -13 5 0 14 -10 21 -22 6 -13 20 -36 31 -53 58 -89 114 -235 125 -324 l6 -54 -39 34 c-68 60 -104 89 -108 89 -3 0 -10 5 -17 10 -32 27 -106 78 -137 96 -19 10 -37 21 -40 24 -20 21 -298 165 -415 214 -16 7 -46 20 -65 28 -30 12 -126 43 -381 123 -26 8 -55 15 -64 15 -10 0 -41 6 -69 14 -28 8 -87 21 -131 30 -44 8 -118 22 -165 30 -47 9 -103 16 -125 16 -22 0 -89 7 -150 15 -288 38 -909 7 -1194 -61 -35 -8 -65 -14 -66 -12 -2 2 -25 35 -51 73 -26 39 -51 72 -56 73 -4 2 -8 8 -8 12 0 10 -56 74 -154 177 -59 62 -66 73 -50 79 10 3 35 11 54 19 38 14 105 34 190 58 30 9 80 23 111 31 31 9 66 16 78 16 12 0 47 6 79 14 214 54 639 78 957 55z m-6220 -311 c-28 -29 -60 -62 -72 -75 -13 -12 -23 -26 -23 -32 0 -5 -4 -11 -8 -13 -33 -13 -232 -357 -232 -400 0 -8 -4 -18 -9 -24 -12 -11 -46 -117 -55 -166 l-7 -38 -1120 0 -1120 0 5 -32 c34 -201 39 -491 12 -615 -10 -43 -24 -93 -32 -111 -8 -18 -14 -40 -14 -48 0 -44 -142 -298 -213 -381 -47 -54 -128 -133 -137 -133 -6 0 -10 -4 -10 -8 0 -27 -244 -176 -355 -218 -196 -74 -439 -94 -700 -59 -60 8 -118 15 -127 15 -17 0 -18 -78 -18 -1492 0 -1269 -2 -1494 -14 -1507 -34 -38 -196 -361 -241 -481 -9 -25 -21 -53 -26 -62 -10 -20 -67 -180 -79 -223 -5 -16 -18 -61 -29 -100 -67 -231 -107 -444 -137 -729 -18 -177 -16 -562 5 -716 30 -220 43 -310 57 -370 25 -116 54 -234 75 -305 11 -38 24 -83 29 -100 13 -47 69 -204 80 -223 5 -9 18 -43 29 -74 11 -32 25 -66 30 -75 5 -10 33 -67 62 -128 28 -60 55 -112 58 -115 3 -3 15 -23 26 -45 10 -22 32 -59 47 -83 l28 -43 0 -1490 c0 -1411 1 -1489 18 -1489 9 0 71 7 137 15 275 34 494 15 690 -62 41 -16 163 -75 200 -96 41 -24 155 -111 155 -119 0 -4 4 -8 10 -8 11 0 110 -98 110 -110 0 -4 4 -10 10 -12 37 -13 230 -341 230 -392 0 -8 6 -30 14 -48 57 -133 66 -451 20 -725 l-5 -33 1669 0 1669 0 -4 78 c-3 42 -10 136 -17 207 -8 72 -12 144 -10 160 20 193 27 230 71 365 14 43 99 224 116 245 4 6 31 42 59 80 64 85 223 245 244 245 3 0 14 9 26 20 12 11 34 26 50 32 15 7 28 16 28 19 0 4 12 12 28 18 15 6 34 15 42 20 8 5 33 17 55 26 22 10 52 24 67 32 14 7 33 13 42 13 8 0 30 6 48 14 108 46 375 59 603 31 65 -8 125 -15 132 -15 11 0 13 279 13 1479 0 1390 1 1481 17 1513 10 18 21 35 24 38 14 11 179 345 214 430 14 36 30 74 35 85 50 115 126 367 173 575 37 162 77 448 77 552 0 40 3 116 6 169 l7 97 96 11 c53 7 111 14 129 17 l32 5 0 -3681 0 -3680 -4065 0 -4065 0 0 7315 0 7315 2542 0 2542 0 -49 -52z m2585 -768 c279 -15 520 -52 755 -115 78 -21 256 -77 295 -93 19 -8 44 -18 55 -23 41 -16 141 -61 185 -83 105 -53 176 -92 188 -103 6 -6 21 -15 32 -18 11 -3 20 -11 20 -16 0 -5 5 -9 10 -9 15 0 194 -138 255 -197 28 -26 71 -73 95 -103 25 -30 48 -56 53 -58 4 -2 7 -10 7 -17 0 -7 3 -15 8 -17 32 -14 117 -193 147 -312 25 -98 25 -127 1 -93 -7 9 -18 17 -24 17 -6 0 -12 4 -14 10 -2 5 -46 41 -98 79 -52 39 -99 74 -105 79 -5 4 -17 11 -25 15 -18 9 -45 26 -80 49 -84 56 -411 218 -440 218 -5 0 -24 6 -42 14 -61 26 -112 44 -213 74 -94 29 -133 39 -280 75 -124 31 -326 64 -465 77 -52 5 -149 14 -215 21 -137 13 -504 8 -665 -10 -172 -19 -331 -42 -397 -57 -34 -8 -73 -14 -86 -14 -13 0 -43 -6 -68 -14 -24 -7 -78 -21 -119 -31 -41 -10 -114 -30 -162 -46 -48 -16 -92 -29 -98 -29 -7 0 -26 -6 -43 -14 -30 -13 -70 -28 -162 -64 -62 -23 -348 -165 -363 -178 -6 -7 -21 -16 -32 -19 -11 -3 -20 -11 -20 -16 0 -5 -5 -9 -11 -9 -14 0 -162 -100 -167 -112 -2 -4 -10 -8 -18 -8 -8 0 -14 -4 -14 -9 0 -4 -17 -20 -37 -33 -21 -14 -51 -38 -67 -52 -15 -15 -30 -25 -32 -23 -7 6 15 105 37 172 61 180 165 325 357 498 29 26 57 47 62 47 4 0 10 4 12 9 2 5 48 39 103 76 162 110 339 196 593 289 79 29 201 63 327 90 39 9 100 23 136 31 36 8 81 15 100 15 19 0 54 5 79 11 25 6 131 17 235 24 105 7 199 13 210 14 11 0 103 -3 205 -9z m3585 -5 c121 -8 245 -19 275 -24 30 -6 84 -15 120 -22 145 -25 249 -48 337 -74 29 -9 74 -22 100 -30 118 -34 380 -142 446 -182 21 -13 48 -28 60 -34 12 -5 36 -18 52 -29 17 -11 37 -23 45 -27 23 -10 75 -47 78 -55 2 -5 10 -8 18 -8 8 0 14 -3 14 -7 0 -5 20 -21 45 -36 25 -16 45 -33 45 -38 0 -5 4 -9 10 -9 9 0 143 -132 200 -196 61 -68 180 -277 180 -314 0 -10 6 -33 14 -51 7 -19 16 -55 18 -81 l5 -46 -48 36 c-27 20 -49 40 -49 44 0 4 -7 8 -15 8 -8 0 -15 4 -15 9 0 5 -20 22 -45 38 -25 15 -45 31 -45 36 0 4 -5 7 -10 7 -12 0 -73 41 -78 53 -2 4 -7 7 -12 7 -5 0 -53 26 -107 58 -89 51 -184 100 -268 137 -16 7 -46 20 -65 28 -19 9 -47 19 -63 22 -15 4 -30 11 -33 16 -3 5 -15 9 -28 9 -12 0 -31 7 -42 15 -10 8 -29 15 -41 15 -12 0 -37 6 -55 14 -31 13 -65 23 -193 59 -103 29 -297 68 -455 91 -377 55 -858 56 -1207 2 l-83 -13 -1 206 c0 113 -4 229 -9 256 -4 28 -7 51 -6 53 3 2 77 15 191 33 66 10 351 33 470 37 17 1 129 -5 250 -13z m-6605 -1631 l0 -1096 -32 6 c-63 11 -394 31 -518 31 -298 0 -618 -35 -825 -90 -27 -8 -79 -21 -115 -30 -178 -44 -380 -113 -550 -187 -14 -6 -38 -17 -55 -24 -56 -23 -230 -109 -235 -115 -7 -8 -58 -35 -92 -50 -16 -6 -28 -15 -28 -20 0 -5 -4 -9 -9 -9 -13 0 -135 -73 -139 -82 -2 -5 -8 -8 -13 -8 -11 0 -72 -42 -77 -52 -2 -5 -10 -8 -18 -8 -8 0 -14 -3 -14 -7 0 -5 -20 -21 -45 -36 -25 -16 -45 -33 -45 -38 0 -5 -7 -9 -15 -9 -8 0 -15 -3 -15 -7 0 -5 -20 -21 -45 -36 -25 -16 -45 -33 -45 -38 0 -5 -6 -9 -14 -9 -8 0 -16 -4 -18 -8 -1 -5 -39 -39 -83 -77 -44 -38 -106 -95 -137 -127 l-58 -58 0 829 0 829 63 11 c35 6 74 11 87 11 25 0 116 22 191 45 26 8 55 15 65 15 11 0 28 7 38 15 11 8 28 15 37 15 10 0 30 6 46 14 15 8 60 29 98 48 81 37 188 99 193 110 2 5 8 8 13 8 22 0 180 129 275 224 97 97 224 253 224 275 0 6 4 11 9 11 5 0 13 9 16 20 3 11 12 26 19 32 15 16 119 227 141 288 39 108 80 272 95 388 l13 92 808 0 809 0 0 -1096z m3107 546 c83 -5 182 -14 220 -20 164 -26 260 -43 289 -52 18 -5 54 -13 80 -18 27 -5 73 -16 101 -25 29 -9 74 -22 100 -30 56 -16 206 -70 243 -86 14 -7 39 -18 55 -25 36 -15 232 -111 260 -128 64 -36 215 -140 215 -147 0 -5 7 -9 15 -9 8 0 15 -3 15 -8 0 -4 25 -27 57 -52 64 -52 185 -185 237 -265 69 -103 104 -182 132 -295 8 -36 18 -73 20 -82 4 -12 0 -18 -10 -18 -9 0 -16 3 -16 8 0 4 -26 27 -57 52 -32 24 -59 48 -61 52 -2 4 -10 8 -18 8 -8 0 -14 4 -14 8 0 9 -155 112 -169 112 -5 0 -11 4 -13 8 -12 28 -318 179 -503 249 -22 8 -55 21 -73 29 -18 8 -41 14 -52 14 -11 0 -34 6 -52 14 -54 23 -202 63 -323 89 -741 159 -1453 132 -2175 -83 -78 -23 -88 -27 -230 -80 -103 -38 -374 -170 -435 -211 -23 -16 -47 -29 -53 -29 -6 0 -12 -3 -14 -7 -5 -11 -66 -53 -77 -53 -5 0 -11 -3 -13 -7 -1 -5 -21 -20 -44 -36 -22 -15 -49 -35 -60 -45 -48 -43 -115 -94 -119 -90 -6 5 19 118 39 178 17 54 76 174 88 178 4 2 8 8 8 13 0 10 26 49 65 98 95 119 355 343 428 367 9 4 17 9 17 13 0 4 26 20 58 36 31 16 73 38 92 50 19 11 71 36 115 54 44 18 94 39 110 46 62 27 113 45 210 75 220 67 318 89 590 131 170 26 480 34 722 19z m3708 -16 c225 -33 302 -47 344 -60 25 -8 53 -14 64 -14 11 0 40 -7 66 -15 297 -93 314 -99 386 -131 28 -12 75 -32 105 -45 30 -13 76 -35 101 -50 25 -15 56 -30 67 -34 12 -3 22 -11 22 -16 0 -5 5 -9 11 -9 21 0 229 -143 302 -210 101 -89 209 -216 264 -305 26 -43 83 -167 83 -180 0 -8 6 -32 14 -52 16 -43 27 -123 17 -123 -3 0 -21 14 -40 30 -70 65 -271 208 -331 236 -8 4 -33 19 -54 32 -47 29 -191 102 -261 131 -27 12 -63 28 -78 36 -16 8 -36 15 -46 15 -9 0 -21 4 -26 8 -25 22 -357 122 -515 155 -41 9 -107 23 -146 32 -40 8 -84 15 -99 15 -15 0 -66 6 -114 14 -311 52 -798 52 -1131 0 -52 -8 -98 -14 -102 -14 -5 0 -8 114 -8 254 l0 253 63 16 c74 18 292 46 397 51 154 7 547 -5 645 -20z m-3568 -1079 c144 -18 286 -41 373 -61 126 -29 275 -69 320 -86 14 -5 57 -20 96 -33 40 -13 80 -28 90 -33 11 -5 36 -16 57 -26 20 -9 54 -23 75 -32 20 -10 44 -21 52 -25 8 -5 38 -20 65 -34 28 -15 64 -35 80 -45 17 -11 39 -24 50 -30 141 -71 401 -312 499 -462 31 -48 56 -91 56 -97 0 -5 11 -32 25 -59 14 -28 30 -72 35 -99 5 -26 14 -66 19 -88 6 -22 9 -41 7 -42 -1 -2 -45 31 -97 73 -52 42 -104 81 -116 87 -13 5 -23 14 -23 19 0 4 -5 8 -10 8 -12 0 -73 41 -78 53 -2 4 -7 7 -12 7 -7 0 -121 63 -180 100 -33 20 -228 110 -239 110 -5 0 -22 7 -38 15 -50 26 -325 115 -458 148 -509 127 -1019 157 -1580 92 -194 -23 -459 -75 -600 -119 -22 -7 -67 -21 -100 -31 -173 -50 -433 -155 -535 -215 -70 -41 -141 -82 -161 -93 -49 -26 -167 -108 -259 -181 -52 -41 -96 -73 -97 -72 -2 2 4 36 12 76 18 83 62 201 99 259 14 22 26 45 26 50 0 5 3 11 8 13 4 2 20 22 36 46 16 23 33 42 37 42 5 0 9 5 9 10 0 16 151 162 226 220 38 29 71 56 74 60 3 3 12 10 20 14 18 8 38 20 110 67 30 20 80 48 110 63 30 15 62 31 70 35 8 5 31 16 50 24 19 9 60 27 91 41 58 26 130 54 164 63 11 3 34 11 52 19 17 8 38 14 47 14 8 0 33 6 53 14 112 41 358 90 598 120 157 20 639 20 792 1z m3568 -4 c39 -6 113 -18 165 -27 176 -28 400 -83 488 -120 18 -8 39 -14 47 -14 8 0 29 -6 47 -14 18 -8 53 -22 78 -31 49 -19 166 -71 190 -85 8 -5 49 -26 90 -46 41 -21 81 -44 88 -51 7 -7 17 -13 22 -13 5 0 15 -6 22 -12 7 -7 25 -19 40 -27 15 -8 37 -22 47 -33 11 -10 25 -18 31 -18 5 0 10 -4 10 -9 0 -4 19 -21 42 -36 51 -34 230 -213 255 -255 9 -17 21 -30 25 -30 4 0 8 -4 8 -9 0 -6 14 -30 30 -55 37 -54 76 -141 100 -221 17 -57 32 -145 25 -145 -2 0 -15 10 -28 23 -50 45 -77 67 -117 93 -22 15 -40 31 -40 35 0 5 -5 9 -10 9 -10 0 -68 37 -80 51 -3 3 -12 9 -20 13 -16 7 -28 15 -95 56 -22 14 -58 34 -80 45 -22 11 -42 23 -45 26 -3 3 -25 15 -50 26 -161 75 -197 90 -305 130 -22 8 -55 21 -73 29 -18 8 -41 14 -52 14 -11 0 -34 6 -52 14 -18 7 -58 20 -88 29 -30 8 -80 22 -111 31 -31 9 -64 16 -74 16 -10 0 -41 6 -69 14 -170 48 -612 96 -882 96 -153 0 -424 -18 -540 -36 -50 -8 -103 -14 -118 -14 l-26 0 0 253 0 252 83 17 c197 41 282 46 622 44 190 -2 360 -8 400 -15z m-7050 -1076 c72 -9 154 -20 183 -26 l52 -10 0 -615 c0 -405 -3 -613 -10 -609 -40 25 -308 75 -399 75 -69 -1 -225 -29 -276 -50 -65 -27 -175 -85 -175 -92 0 -4 -6 -8 -14 -8 -8 0 -16 -3 -18 -7 -1 -5 -24 -25 -49 -45 -50 -40 -145 -153 -175 -208 -10 -19 -25 -41 -31 -48 -7 -7 -13 -19 -13 -25 -1 -7 -21 -25 -45 -40 -25 -16 -45 -33 -45 -38 0 -5 -7 -9 -15 -9 -8 0 -15 -4 -15 -8 0 -5 -35 -38 -77 -75 -43 -36 -107 -93 -143 -128 -150 -143 -173 -160 -234 -166 -73 -8 -206 27 -244 64 -7 7 -17 13 -21 13 -13 0 -131 117 -226 225 -49 55 -100 112 -114 127 -45 46 -103 110 -190 208 -47 52 -96 107 -110 122 -47 49 -105 112 -190 208 -47 52 -89 98 -95 103 -7 5 -5 12 7 21 9 7 17 16 17 20 0 15 216 220 305 291 28 22 52 42 55 45 20 22 238 178 270 193 8 4 29 16 45 27 17 11 37 23 45 27 8 4 30 17 49 30 31 21 258 134 336 167 17 7 47 21 68 30 21 9 46 16 55 16 10 0 22 4 27 8 19 17 263 89 425 126 312 71 697 95 985 61z m3445 0 c150 -17 294 -40 385 -60 33 -8 74 -16 90 -19 17 -3 62 -15 100 -27 39 -11 86 -24 105 -29 45 -11 98 -29 132 -46 14 -8 33 -14 42 -14 9 0 24 -4 34 -9 9 -5 40 -19 67 -31 70 -30 259 -122 265 -129 3 -3 23 -15 45 -26 22 -11 42 -22 45 -25 15 -15 71 -50 80 -50 5 0 10 -3 10 -7 0 -5 20 -21 45 -36 25 -16 45 -33 45 -38 0 -5 5 -9 11 -9 14 0 229 -213 229 -227 0 -6 3 -13 8 -15 22 -9 106 -153 153 -263 43 -98 62 -307 38 -400 -6 -22 -13 -51 -16 -65 -15 -74 -82 -212 -145 -300 -56 -79 -161 -200 -173 -200 -3 0 -17 -12 -30 -26 -20 -21 -70 -61 -221 -171 -19 -14 -49 -33 -69 -43 -11 -6 -33 -19 -50 -29 -34 -22 -151 -81 -210 -106 -22 -9 -53 -23 -70 -30 -16 -7 -50 -21 -75 -30 -25 -9 -60 -23 -78 -31 -18 -8 -39 -14 -47 -14 -8 0 -29 -6 -47 -14 -18 -7 -58 -21 -88 -29 -483 -135 -1006 -167 -1505 -91 -154 24 -229 40 -470 104 -37 10 -90 28 -133 46 -18 8 -39 14 -47 14 -9 0 -23 4 -33 10 -9 5 -56 26 -105 46 -48 20 -120 54 -160 75 -39 21 -84 44 -99 50 -16 6 -28 15 -28 20 0 5 -5 9 -10 9 -15 0 -170 102 -170 112 0 4 -6 8 -14 8 -8 0 -16 3 -18 8 -1 4 -32 31 -68 61 -74 62 -137 127 -182 189 -17 23 -35 42 -40 42 -4 0 -8 4 -8 9 0 6 -13 29 -28 53 -35 52 -56 92 -75 138 -8 19 -20 49 -27 65 -18 42 -49 202 -49 250 0 65 34 214 68 299 30 76 109 205 168 275 102 122 275 267 428 358 42 25 342 171 385 188 25 9 60 23 78 31 18 8 39 14 47 14 8 0 29 6 47 14 30 13 77 26 213 62 138 35 314 66 500 88 167 19 556 20 725 1z m3545 -5 c271 -32 360 -49 605 -115 181 -49 541 -197 588 -242 7 -7 17 -13 22 -13 5 0 29 -13 53 -30 25 -16 48 -30 51 -30 4 0 12 -4 19 -10 7 -5 53 -41 102 -79 266 -203 445 -468 468 -692 l4 -46 -25 21 c-14 11 -32 28 -41 37 -47 45 -270 199 -290 199 -5 0 -11 4 -13 8 -4 11 -103 67 -218 123 -164 80 -293 130 -480 185 -30 9 -66 21 -80 25 -103 36 -406 96 -630 126 -190 25 -846 25 -992 0 -54 -9 -118 -17 -143 -17 l-45 0 0 255 0 255 23 0 c12 0 58 7 102 15 257 49 631 59 920 25z m-88 -1075 c180 -18 348 -41 428 -60 33 -8 71 -16 85 -18 14 -2 61 -15 105 -27 44 -12 96 -26 115 -30 19 -5 60 -18 90 -30 30 -12 64 -24 75 -27 26 -7 83 -30 118 -48 16 -8 33 -15 39 -15 16 0 228 -109 293 -150 17 -11 37 -23 45 -27 70 -31 304 -234 394 -342 103 -122 197 -322 209 -444 4 -43 3 -46 -12 -35 -9 7 -20 18 -26 24 -20 22 -214 164 -225 164 -5 0 -10 4 -10 9 0 5 -13 14 -30 21 -16 7 -30 16 -30 21 0 5 -5 9 -10 9 -6 0 -29 12 -53 27 -56 35 -256 135 -337 168 -95 38 -101 41 -143 59 -21 9 -44 16 -52 16 -8 0 -29 6 -47 14 -44 18 -144 47 -313 90 -140 35 -307 65 -530 93 -169 21 -779 24 -880 4 -33 -6 -105 -16 -159 -21 -55 -6 -109 -13 -119 -16 -17 -5 -19 -3 -13 17 18 61 36 247 36 366 0 130 1 133 23 137 322 62 651 80 934 51z m-9927 -443 c0 -4 17 -26 38 -47 21 -22 76 -83 122 -135 87 -97 145 -161 191 -208 14 -15 63 -70 110 -122 320 -361 474 -502 609 -560 14 -6 34 -14 45 -19 140 -60 210 -73 380 -73 150 0 229 12 312 48 17 8 36 14 41 14 6 0 12 3 14 8 2 4 21 19 44 35 22 15 49 35 60 45 10 10 57 51 104 92 47 41 102 91 122 112 21 21 40 38 42 38 2 0 26 21 52 46 86 81 109 95 168 101 45 5 57 10 62 27 3 11 14 39 24 61 9 22 25 58 35 80 27 61 98 165 112 165 7 0 13 4 13 10 0 5 19 19 42 31 71 36 214 27 343 -21 42 -16 241 -115 253 -127 6 -6 21 -15 32 -18 11 -3 20 -11 20 -16 0 -5 6 -9 13 -9 7 0 21 -20 32 -45 11 -25 23 -45 26 -45 4 0 12 -13 19 -30 7 -16 16 -30 21 -30 5 0 9 -6 9 -14 0 -8 3 -16 8 -18 4 -1 19 -21 34 -43 15 -22 52 -67 82 -100 31 -33 56 -63 56 -67 0 -7 178 -169 230 -210 69 -54 175 -128 181 -128 7 0 71 -127 89 -175 60 -161 87 -288 106 -485 21 -233 0 -477 -63 -715 -13 -49 -28 -106 -33 -125 -19 -79 -38 -115 -60 -118 -26 -4 -149 23 -198 44 -18 8 -39 14 -47 14 -8 0 -31 7 -52 16 -21 9 -51 23 -68 29 -112 47 -163 86 -175 135 -4 19 -18 60 -30 90 -12 30 -24 64 -27 75 -3 11 -11 34 -19 52 -8 17 -14 36 -14 42 0 9 -29 78 -38 91 -2 3 -79 -72 -170 -166 -169 -172 -214 -214 -232 -214 -6 0 -10 -3 -10 -7 0 -18 -166 -104 -266 -137 -155 -53 -354 -75 -424 -47 -57 22 -120 55 -120 63 0 5 -4 8 -10 8 -12 0 -127 117 -195 196 -172 204 -287 256 -565 255 -105 0 -157 -4 -189 -15 -24 -9 -52 -16 -62 -16 -18 0 -69 -19 -121 -46 -14 -8 -33 -14 -42 -14 -9 0 -16 -4 -16 -9 0 -5 -10 -13 -22 -17 -50 -15 -160 -103 -263 -209 -118 -120 -132 -136 -270 -290 -49 -55 -107 -117 -127 -137 -21 -21 -38 -40 -38 -43 0 -3 -10 -16 -23 -28 -13 -12 -70 -74 -127 -137 -57 -63 -114 -125 -127 -137 -13 -12 -23 -25 -23 -28 0 -8 -39 -45 -48 -45 -24 0 -202 339 -272 515 -4 11 -13 34 -20 50 -51 126 -123 380 -154 540 -44 233 -51 314 -50 615 0 300 3 336 50 600 27 153 101 413 154 545 7 17 16 39 20 50 36 91 144 313 190 390 16 28 33 57 37 65 19 36 39 60 50 60 7 0 13 -4 13 -8z m9925 -643 c199 -16 266 -25 415 -55 163 -34 202 -44 360 -93 211 -65 446 -170 580 -259 35 -23 62 -40 80 -49 8 -4 21 -12 27 -19 7 -7 28 -22 48 -34 19 -12 35 -26 35 -31 0 -5 4 -9 10 -9 24 0 260 -236 260 -261 0 -5 4 -9 8 -9 5 0 14 -10 21 -22 6 -13 20 -36 31 -53 59 -92 113 -234 124 -327 l6 -47 -23 19 c-12 10 -35 31 -52 45 -16 14 -42 33 -57 43 -16 9 -28 20 -28 24 0 4 -7 8 -15 8 -8 0 -15 4 -15 9 0 7 -78 61 -120 83 -8 5 -28 17 -45 28 -16 11 -39 24 -50 30 -11 6 -33 19 -50 30 -43 28 -241 124 -300 145 -27 10 -54 22 -60 26 -24 17 -381 127 -495 153 -363 81 -592 106 -975 106 -380 0 -642 -28 -985 -107 -112 -25 -412 -117 -485 -148 -16 -7 -50 -20 -75 -30 -66 -27 -260 -122 -295 -145 -16 -11 -39 -24 -50 -30 -11 -6 -33 -19 -50 -30 -16 -11 -37 -23 -45 -28 -42 -22 -120 -76 -120 -83 0 -5 -7 -9 -15 -9 -8 0 -15 -4 -15 -8 0 -4 -12 -15 -27 -24 -16 -10 -41 -29 -58 -43 -16 -14 -41 -35 -54 -46 l-23 -21 7 54 c8 65 36 151 76 232 60 122 84 153 127 167 20 6 41 15 46 20 6 5 17 9 25 9 31 0 440 211 449 232 2 5 8 8 13 8 11 0 72 42 77 53 2 4 8 7 14 7 9 0 98 65 163 120 17 14 75 69 131 123 111 107 80 92 320 162 28 8 61 15 73 15 12 0 50 6 84 14 132 31 375 58 607 69 75 4 209 -1 365 -14z m-4982 -908 c298 -86 679 -151 883 -151 45 0 96 -3 113 -6 l31 -6 0 -76 c0 -178 -47 -524 -96 -699 -35 -131 -47 -170 -60 -201 -8 -18 -14 -39 -14 -47 0 -8 -6 -29 -14 -47 -8 -18 -22 -53 -31 -78 -9 -25 -23 -58 -30 -75 -7 -16 -21 -48 -30 -70 -50 -118 -171 -347 -187 -353 -4 -2 -8 -8 -8 -14 0 -14 -163 -258 -172 -258 -4 0 -8 -6 -8 -14 0 -8 -3 -16 -8 -18 -4 -1 -32 -34 -62 -73 -30 -38 -57 -72 -60 -75 -4 -3 -46 -49 -95 -103 -81 -91 -166 -171 -289 -272 -27 -22 -60 -50 -75 -63 -14 -13 -38 -30 -53 -40 -16 -9 -28 -20 -28 -24 0 -4 -7 -8 -15 -8 -8 0 -15 -4 -15 -9 0 -9 -201 -144 -250 -167 -8 -4 -33 -19 -55 -33 -35 -22 -75 -44 -140 -78 -34 -18 -127 -60 -195 -87 -36 -15 -74 -31 -85 -36 -11 -4 -29 -11 -40 -13 -11 -3 -45 -15 -75 -27 -30 -12 -71 -25 -90 -30 -19 -4 -46 -12 -60 -18 -83 -34 -362 -90 -591 -118 -154 -19 -558 -15 -684 5 -38 7 -113 19 -165 27 -52 8 -120 22 -150 29 -30 8 -68 16 -85 19 -16 3 -61 15 -100 26 -38 12 -83 25 -100 30 -16 5 -64 20 -105 35 -66 23 -95 34 -175 65 -56 22 -315 152 -346 173 -21 14 -46 28 -58 32 -12 3 -21 11 -21 16 0 5 -5 9 -11 9 -26 0 -290 189 -425 305 -57 49 -231 219 -268 262 -18 22 -18 22 5 45 13 13 62 66 108 118 47 52 98 107 113 122 15 15 28 29 28 32 0 4 17 23 38 44 21 20 76 80 123 132 86 98 145 162 190 208 14 15 65 72 114 127 139 156 188 200 265 237 72 34 174 47 223 29 13 -5 53 -45 89 -88 159 -192 294 -300 483 -384 11 -5 52 -19 90 -31 63 -20 90 -22 265 -21 157 0 212 5 285 21 120 27 189 46 255 72 30 12 63 24 73 27 30 9 189 93 215 114 24 18 26 18 51 2 42 -28 192 -103 236 -119 384 -140 676 -170 911 -93 38 12 43 19 86 108 26 53 56 121 68 151 12 30 26 66 32 80 58 146 119 399 153 632 18 124 21 542 5 629 -19 101 -27 189 -17 189 5 0 55 -13 110 -29z m4932 -171 c256 -18 469 -56 780 -140 117 -32 286 -98 435 -169 101 -48 319 -180 350 -211 3 -3 38 -32 78 -64 291 -235 453 -566 412 -842 -19 -129 -67 -261 -131 -359 -10 -16 -22 -38 -25 -47 -4 -10 -10 -18 -13 -18 -4 0 -23 -21 -42 -47 -49 -70 -164 -180 -260 -252 -46 -34 -92 -69 -102 -77 -9 -8 -20 -14 -23 -14 -3 0 -26 -13 -51 -30 -24 -16 -48 -30 -53 -30 -5 0 -15 -6 -22 -13 -16 -15 -161 -86 -238 -117 -30 -12 -66 -27 -80 -34 -30 -15 -292 -99 -375 -119 -460 -116 -969 -138 -1440 -61 -177 28 -299 55 -415 90 -121 36 -238 76 -262 89 -14 8 -31 15 -36 15 -11 0 -120 48 -192 84 -260 132 -481 302 -605 464 -21 29 -43 52 -47 52 -4 0 -8 5 -8 10 0 6 -12 29 -27 53 -106 164 -158 370 -134 529 23 153 66 263 156 398 49 74 198 232 285 303 42 34 65 50 165 117 207 140 616 304 895 359 25 5 68 13 95 19 302 62 621 83 930 62z m-2475 -2537 c62 -55 87 -75 113 -91 15 -9 27 -20 27 -24 0 -4 4 -8 10 -8 5 0 19 -8 30 -17 20 -17 20 -25 20 -2320 l0 -2303 -130 0 -130 0 0 2406 c0 2290 1 2406 18 2393 9 -8 28 -24 42 -36z m-7240 -258 c36 -32 83 -75 105 -95 45 -41 281 -220 290 -220 3 0 15 -8 26 -18 10 -11 32 -25 47 -33 15 -8 29 -16 32 -19 9 -9 65 -46 80 -53 8 -4 29 -16 45 -27 17 -11 41 -25 55 -30 13 -6 27 -14 30 -18 4 -7 280 -144 355 -177 17 -7 68 -28 115 -45 47 -17 100 -38 118 -46 18 -8 39 -14 47 -14 8 0 29 -6 47 -14 49 -20 209 -66 313 -89 299 -66 565 -96 858 -97 228 0 546 30 703 66 33 8 69 14 79 14 10 0 41 6 69 14 28 8 80 22 116 31 79 20 342 103 390 123 19 8 44 18 55 22 20 8 94 40 150 64 75 34 297 146 305 155 3 4 23 15 45 26 22 11 46 26 53 32 7 7 17 13 22 13 5 0 15 6 22 13 7 6 29 21 48 31 31 18 105 69 137 96 7 5 17 10 23 10 5 0 10 3 10 8 0 4 20 20 45 35 25 16 45 33 45 38 0 5 7 9 15 9 8 0 15 4 15 9 0 4 17 20 38 33 21 14 57 44 81 67 23 22 44 41 46 41 1 0 45 40 96 90 l94 89 3 -826 c1 -626 -1 -829 -10 -834 -6 -4 -43 -10 -82 -14 -110 -9 -332 -66 -435 -111 -94 -42 -267 -130 -281 -144 -15 -15 -71 -50 -80 -50 -5 0 -10 -3 -10 -8 0 -4 -27 -27 -60 -51 -33 -24 -60 -48 -60 -52 0 -5 -4 -9 -10 -9 -8 0 -107 -96 -170 -167 -160 -177 -308 -457 -373 -708 -27 -104 -47 -214 -47 -260 l0 -45 -1083 0 -1084 0 -12 88 c-18 130 -52 271 -88 367 -9 22 -19 49 -23 60 -16 43 -115 241 -127 253 -6 6 -15 21 -18 32 -3 11 -11 20 -16 20 -5 0 -9 5 -9 11 0 20 -125 175 -215 265 -90 90 -154 146 -223 194 -21 14 -38 28 -40 33 -2 4 -8 7 -12 7 -5 0 -28 13 -52 29 -98 66 -295 153 -438 194 -95 27 -183 46 -245 52 -33 4 -70 9 -82 12 l-23 5 0 829 0 829 38 -38 c20 -21 66 -65 102 -97z m8075 -214 c36 -15 89 -33 121 -41 18 -4 37 -10 43 -14 8 -5 11 -574 11 -2122 l0 -2114 -125 0 -125 0 0 2160 0 2160 28 -10 c15 -6 36 -14 47 -19z m883 -208 l102 -16 0 -2034 0 -2033 -125 0 -125 0 0 2050 0 2050 23 0 c12 0 68 -7 125 -17z"/>
 <path d="M2370 14903 c-36 -8 -83 -22 -105 -30 -93 -35 -121 -47 -135 -59 -8 -6 -25 -15 -37 -18 -13 -4 -23 -12 -23 -17 0 -5 -5 -9 -10 -9 -14 0 -110 -72 -110 -82 0 -4 -4 -8 -10 -8 -12 0 -80 -68 -80 -80 0 -6 -4 -10 -8 -10 -8 0 -64 -72 -89 -115 -96 -163 -143 -330 -143 -503 0 -169 25 -279 99 -430 52 -107 61 -122 72 -122 5 0 9 -6 9 -13 0 -22 206 -227 228 -227 3 0 13 -6 21 -14 27 -23 131 -75 205 -102 205 -74 476 -70 671 11 54 22 130 58 135 64 3 4 22 15 44 26 21 11 40 26 43 33 3 6 10 12 15 12 14 0 168 155 168 169 0 6 4 11 9 11 18 0 110 170 146 271 43 122 57 333 31 479 -33 190 -111 343 -253 496 -45 49 -199 164 -219 164 -8 0 -14 4 -14 10 0 5 -12 13 -27 16 -16 4 -37 13 -48 19 -23 14 -92 37 -182 59 -82 21 -313 20 -403 -1z m272 -547 c41 -8 90 -24 109 -35 19 -11 40 -24 48 -28 22 -10 91 -84 115 -123 71 -114 77 -274 15 -380 -5 -8 -13 -25 -18 -37 -18 -40 -97 -108 -166 -143 -119 -59 -269 -53 -370 15 -16 11 -31 23 -33 28 -2 4 -8 7 -13 7 -18 0 -78 73 -111 135 -30 56 -32 66 -32 165 -1 118 11 159 72 240 61 83 140 133 247 155 33 7 61 13 62 14 1 1 35 -5 75 -13z"/>
 <path d="M2410 2705 c-96 -15 -153 -34 -260 -85 -96 -45 -223 -142 -286 -217 -27 -32 -52 -59 -56 -61 -5 -2 -8 -10 -8 -18 0 -8 -3 -14 -7 -14 -14 0 -94 -151 -122 -230 -50 -139 -66 -367 -35 -498 28 -121 53 -195 86 -252 4 -8 13 -27 19 -42 6 -16 15 -28 20 -28 5 0 9 -5 9 -10 0 -14 72 -110 82 -110 4 0 8 -5 8 -10 0 -17 90 -100 171 -157 156 -109 335 -163 544 -163 136 0 219 14 340 56 56 19 193 90 205 105 3 4 28 24 55 44 143 108 252 268 315 460 54 164 51 435 -5 594 -19 53 -75 174 -84 181 -3 3 -15 22 -26 44 -11 21 -26 40 -32 43 -7 3 -13 10 -13 15 0 14 -155 168 -169 168 -6 0 -11 4 -11 8 0 5 -10 14 -22 21 -13 6 -36 20 -53 31 -32 20 -101 55 -150 75 -142 59 -341 78 -515 50z m284 -565 c99 -35 162 -83 214 -163 43 -68 55 -107 59 -200 6 -126 -30 -215 -124 -304 -19 -18 -38 -33 -44 -33 -5 0 -9 -4 -9 -8 0 -12 -74 -42 -143 -59 -173 -40 -363 66 -442 247 -16 34 -20 67 -20 145 0 95 2 104 35 169 19 38 41 71 48 73 6 3 12 11 12 19 0 8 3 14 8 14 4 0 18 10 32 23 25 23 70 49 140 80 51 23 163 21 234 -3z"/>
 <path d="M8110 2705 c-114 -20 -176 -41 -275 -91 -49 -25 -92 -49 -95 -52 -3 -4 -23 -19 -45 -33 -117 -77 -266 -273 -321 -422 -40 -111 -54 -197 -54 -342 0 -170 21 -275 80 -402 50 -107 95 -174 172 -253 148 -153 276 -228 482 -280 109 -28 330 -28 432 -1 213 57 320 117 467 262 48 47 87 89 87 93 0 6 39 65 50 76 25 24 82 161 109 265 43 163 31 446 -25 558 -8 16 -14 32 -14 37 0 11 -38 91 -60 125 -11 17 -23 37 -27 45 -3 8 -9 17 -12 20 -4 3 -19 23 -36 45 -71 96 -209 211 -315 261 -192 92 -401 123 -600 89z m276 -562 c353 -118 381 -585 44 -745 -156 -74 -364 -20 -473 124 -71 92 -98 198 -78 303 11 62 46 146 63 153 4 2 8 8 8 13 0 14 90 97 125 116 99 53 218 67 311 36z"/>
 </g>

</svg>