<!DOCTYPE svg PUBLIC "-//W3C//DTD SVG 20010904//EN" "http://www.w3.org/TR/2001/REC-SVG-20010904/DTD/svg10.dtd">
<svg version="1.0" xmlns="http://www.w3.org/2000/svg" width="928px" height="1224px" viewBox="0 0 9280 12240" preserveAspectRatio="xMidYMid meet">
<g id="layer101" fill="#ffffff" stroke="none">
 <path d="M472 12224 c-208 -45 -399 -230 -452 -438 -20 -79 -20 -99 -20 -5677 l0 -5598 25 -80 c64 -201 235 -362 443 -415 54 -14 388 -16 3201 -16 3086 0 3142 0 3179 19 56 30 2398 2377 2417 2423 13 33 15 527 15 4651 0 4592 0 4614 -20 4693 -54 212 -245 393 -461 440 -96 20 -8233 19 -8327 -2z m8278 -408 c49 -26 79 -55 103 -101 l22 -40 3 -4472 2 -4472 -907 -3 -908 -3 -70 -23 c-234 -78 -396 -265 -434 -503 -7 -41 -11 -379 -11 -932 l0 -867 -2992 2 -2993 3 -40 22 c-51 27 -79 57 -104 113 l-21 45 0 5535 0 5535 24 51 c27 58 77 103 133 121 29 9 1010 11 4098 10 3943 -2 4061 -3 4095 -21z m-975 -10306 l-810 -810 -3 712 c-2 508 1 725 9 754 15 55 63 112 113 135 39 18 82 19 771 19 l730 0 -810 -810z"/>
 <path d="M6750 10740 c-393 -84 -688 -363 -796 -752 -35 -128 -44 -346 -20 -468 45 -221 138 -395 291 -546 136 -134 300 -229 475 -274 120 -31 343 -39 458 -15 226 46 385 129 546 288 203 200 308 457 308 752 0 498 -358 926 -855 1020 -109 21 -299 18 -407 -5z m338 -395 c306 -61 540 -358 518 -657 -13 -177 -68 -300 -191 -424 -130 -130 -267 -188 -450 -188 -175 -1 -324 62 -451 188 -79 79 -131 166 -164 271 -28 88 -31 239 -6 335 49 195 204 373 384 440 131 50 234 60 360 35z"/>
 <path d="M6885 10066 c-105 -26 -194 -94 -238 -183 -32 -64 -38 -92 -38 -180 0 -311 389 -466 611 -243 57 56 88 119 102 204 30 180 -92 359 -271 400 -81 19 -98 19 -166 2z"/>
 <path d="M3714 10326 c-17 -8 -47 -30 -66 -50 -95 -98 -69 -254 54 -317 37 -19 66 -19 841 -17 l803 3 42 28 c99 65 117 205 39 294 -67 77 -17 73 -897 72 -635 0 -791 -2 -816 -13z"/>
 <path d="M3699 9260 c-134 -71 -145 -258 -21 -345 l44 -30 811 0 812 0 38 24 c119 74 122 261 5 338 l-42 28 -805 2 c-779 2 -807 2 -842 -17z"/>
 <path d="M1385 7576 c-73 -33 -118 -102 -119 -187 -1 -74 39 -142 103 -176 l44 -23 3227 0 3227 0 44 23 c144 76 133 300 -18 363 -48 20 -6463 20 -6508 0z"/>
 <path d="M1365 6507 c-23 -13 -52 -42 -69 -70 -58 -94 -33 -213 58 -274 l41 -28 3245 0 3245 0 36 24 c126 85 123 271 -5 346 l-43 25 -3234 0 -3234 0 -40 -23z"/>
 <path d="M1395 5465 c-90 -32 -151 -150 -125 -245 15 -54 83 -125 135 -139 57 -16 6413 -16 6470 0 58 16 120 84 133 146 15 67 -1 131 -44 181 -67 79 252 72 -3328 72 -2720 -1 -3207 -3 -3241 -15z"/>
 <path d="M3285 4401 c-145 -67 -156 -272 -20 -356 l48 -30 1327 0 1327 0 48 30 c124 77 128 256 7 340 l-44 30 -1326 2 c-1273 3 -1329 2 -1367 -16z"/>
 <path d="M1395 2715 c-22 -8 -56 -32 -77 -55 -88 -98 -63 -245 52 -310 l45 -25 1190 -3 c847 -2 1203 0 1235 8 95 24 153 100 153 201 0 87 -58 166 -141 189 -24 6 -438 10 -1227 10 -995 -1 -1197 -3 -1230 -15z"/>
 <path d="M1390 1654 c-79 -34 -121 -98 -123 -184 -2 -75 37 -142 102 -177 l45 -23 807 2 807 3 39 31 c119 95 105 271 -28 341 l-42 23 -786 0 c-680 -1 -791 -3 -821 -16z"/>
 </g>

</svg>