<!DOCTYPE svg PUBLIC "-//W3C//DTD SVG 20010904//EN" "http://www.w3.org/TR/2001/REC-SVG-20010904/DTD/svg10.dtd">
<svg version="1.0" xmlns="http://www.w3.org/2000/svg" width="1098px" height="1224px" viewBox="0 0 10980 12240" preserveAspectRatio="xMidYMid meet">
<g id="layer101" fill="#ffffff" stroke="none">
 <path d="M1115 12234 c-189 -39 -315 -104 -443 -228 -104 -100 -166 -202 -218 -356 l-29 -85 -3 -2832 -2 -2833 -133 0 c-118 0 -138 -3 -177 -23 -24 -12 -58 -39 -74 -60 l-31 -39 -3 -841 c-2 -817 -2 -844 18 -922 48 -188 161 -357 320 -477 57 -43 189 -105 275 -130 l80 -22 1920 -6 1920 -5 -180 -84 c-319 -149 -405 -191 -700 -337 -748 -369 -1196 -630 -1374 -798 -340 -323 -466 -826 -320 -1282 103 -324 336 -597 634 -744 189 -93 350 -130 563 -130 220 0 378 37 577 135 107 53 233 144 320 230 232 231 730 1170 1370 2577 32 71 61 128 66 128 4 0 11 -10 15 -22 11 -39 175 -395 362 -788 435 -917 796 -1578 995 -1825 224 -276 575 -435 960 -435 214 0 388 41 567 133 348 179 580 486 666 882 26 122 24 360 -5 493 -54 256 -181 486 -362 656 -105 100 -419 299 -734 466 -44 23 -98 53 -120 65 -87 49 -716 360 -990 490 -159 76 -315 149 -345 164 l-55 26 1920 5 1920 6 79 22 c316 92 537 330 601 649 14 68 15 185 13 900 l-3 821 -31 39 c-16 21 -50 48 -74 61 -39 19 -59 22 -177 22 l-133 0 0 2793 c0 1908 -3 2812 -11 2853 -56 321 -287 577 -604 671 -57 17 -270 18 -4435 19 -2406 1 -4384 0 -4395 -2z m3325 -2432 l0 -2038 23 -44 c13 -26 40 -57 65 -75 39 -27 52 -30 115 -30 62 0 78 4 113 28 22 15 51 46 65 70 l24 42 3 2043 2 2042 640 0 640 0 2 -2042 3 -2043 27 -46 c40 -68 86 -93 174 -93 92 -1 144 30 180 107 l24 52 0 2033 0 2032 1613 0 c1772 0 1671 3 1782 -60 113 -64 198 -193 215 -323 6 -43 10 -1168 10 -2814 l0 -2743 -4670 0 -4670 0 0 2743 c0 1679 4 2770 10 2815 23 177 149 320 323 367 44 11 311 14 1670 14 l1617 1 0 -2038z m0 -4497 l0 -185 -22 5 c-130 28 -441 33 -638 10 -211 -24 -439 -73 -507 -109 -70 -35 -109 -115 -100 -198 8 -64 33 -105 84 -141 61 -44 104 -44 288 -3 275 61 503 78 705 52 69 -9 139 -20 155 -24 l30 -8 3 -462 2 -462 -1837 2 c-1837 3 -1838 3 -1899 24 -105 36 -199 113 -248 205 -56 101 -56 108 -56 821 l0 658 2020 0 2020 0 0 -185z m1690 -70 c0 -156 -4 -255 -10 -255 -17 0 -190 -108 -253 -158 -34 -28 -100 -90 -147 -138 -73 -76 -111 -126 -217 -290 -13 -19 -13 -19 -25 0 -182 279 -332 429 -538 542 l-90 49 0 253 0 252 640 0 640 0 0 -255z m4450 -395 c0 -439 -4 -666 -11 -702 -33 -156 -147 -284 -299 -335 -52 -17 -140 -18 -1893 -21 l-1837 -2 2 462 3 462 30 8 c17 4 86 15 155 24 202 26 452 6 723 -56 72 -16 147 -30 166 -30 55 0 117 36 154 88 28 42 32 55 32 114 0 58 -4 72 -30 109 -37 52 -72 74 -162 99 -317 87 -810 118 -1050 65 l-23 -5 0 185 0 185 2020 0 2020 0 0 -650z m-5629 -427 c98 -102 164 -197 220 -318 37 -80 78 -205 92 -282 l7 -33 -210 0 -210 0 0 360 c0 198 4 360 9 360 4 0 46 -39 92 -87z m1179 -273 l0 -360 -210 0 -209 0 6 33 c28 149 106 336 194 462 49 72 193 225 211 225 4 0 8 -162 8 -360z m-1128 -1141 c-209 -463 -641 -1351 -822 -1689 -174 -324 -334 -576 -417 -657 -245 -240 -603 -312 -922 -187 -146 58 -303 186 -391 321 -104 158 -146 313 -137 507 9 213 77 379 216 531 59 64 105 99 254 194 160 102 306 184 647 366 118 62 887 445 896 445 2 0 61 27 131 61 71 33 200 94 288 134 88 40 198 91 245 113 47 22 86 39 88 37 1 -1 -33 -80 -76 -176z m1048 108 c420 -188 1282 -605 1580 -764 474 -254 705 -396 798 -493 282 -295 321 -743 93 -1079 -79 -117 -246 -250 -381 -304 -267 -106 -582 -72 -805 88 -138 98 -209 189 -389 497 -204 350 -579 1085 -831 1633 -15 33 -57 123 -92 200 -90 193 -134 297 -125 292 4 -3 72 -34 152 -70z"/>
 <path d="M4565 7151 c-53 -25 -101 -77 -115 -126 -8 -27 -10 -123 -8 -297 l3 -256 30 -43 c75 -106 222 -117 311 -24 57 58 64 100 64 356 0 237 -7 280 -56 337 -57 67 -152 89 -229 53z"/>
 <path d="M6267 7155 c-45 -15 -79 -45 -110 -95 -21 -33 -22 -49 -25 -270 -2 -129 -1 -253 3 -276 13 -92 89 -161 188 -171 44 -4 61 0 107 24 45 23 60 37 82 82 l28 53 0 252 c0 282 -5 303 -73 363 -58 51 -128 64 -200 38z"/>
 </g>

</svg>