<!DOCTYPE svg PUBLIC "-//W3C//DTD SVG 20010904//EN" "http://www.w3.org/TR/2001/REC-SVG-20010904/DTD/svg10.dtd">
<svg version="1.0" xmlns="http://www.w3.org/2000/svg" width="1024px" height="1024px" viewBox="0 0 10240 10240" preserveAspectRatio="xMidYMid meet">
<g id="layer101" fill="#ffffff" stroke="none">
 <path d="M82 10223 c-51 -25 -76 -68 -80 -138 -5 -74 21 -118 88 -153 52 -27 129 -26 178 3 80 48 104 166 48 239 -16 21 -44 44 -62 52 -45 19 -131 17 -172 -3z"/>
 <path d="M735 10226 c-62 -27 -101 -102 -90 -174 8 -55 62 -117 113 -132 23 -6 218 -10 499 -10 l462 0 4 -797 c4 -867 2 -825 64 -1073 116 -465 416 -898 823 -1188 133 -95 304 -189 432 -237 l47 -17 -76 -51 c-200 -135 -388 -347 -490 -552 -67 -132 -143 -384 -143 -470 l0 -25 -265 0 c-298 0 -313 -3 -361 -66 l-29 -37 0 -331 c0 -316 1 -335 23 -416 95 -344 348 -613 682 -724 132 -44 172 -46 872 -46 617 0 674 1 780 20 521 90 962 472 1127 977 76 233 95 506 51 738 -19 97 -79 273 -125 365 -108 216 -295 432 -481 556 l-91 61 36 13 c20 7 88 37 151 67 208 98 448 276 610 452 l81 87 132 -131 c217 -217 441 -365 725 -481 22 -9 18 -13 -58 -63 -98 -64 -262 -218 -340 -321 -373 -489 -399 -1162 -66 -1678 59 -91 93 -133 189 -230 280 -286 632 -432 1037 -432 413 0 763 149 1050 447 199 206 335 472 386 758 27 151 25 398 -5 535 -43 202 -111 364 -223 531 -80 122 -273 314 -387 389 -78 51 -82 55 -60 64 262 107 491 253 684 437 350 334 560 737 637 1224 20 121 21 181 25 888 l5 757 136 0 c75 0 154 5 174 10 44 13 93 66 109 120 21 71 -20 158 -87 186 -49 20 -8723 20 -8769 0z m4215 -1018 c0 -394 5 -754 10 -818 23 -260 93 -506 211 -748 l70 -143 -68 -81 c-37 -44 -111 -119 -163 -165 -95 -85 -298 -229 -308 -219 -3 3 -15 30 -27 60 -39 95 -116 208 -199 292 -123 123 -258 201 -426 245 -120 31 -310 32 -433 1 -290 -72 -501 -246 -629 -519 -26 -55 -43 -81 -51 -77 -7 4 -59 39 -117 78 -132 88 -346 300 -442 436 -177 251 -288 553 -318 865 -6 64 -10 400 -10 803 l0 692 1450 0 1450 0 0 -702z m3877 -85 c-4 -850 -2 -814 -61 -1027 -106 -382 -334 -712 -661 -956 -44 -32 -101 -71 -126 -85 l-46 -25 -18 48 c-20 54 -87 173 -122 217 -191 237 -445 360 -738 359 -328 -1 -629 -175 -792 -459 -23 -38 -49 -91 -58 -117 l-18 -48 -46 25 c-153 84 -402 315 -524 485 -129 182 -245 447 -298 685 -22 98 -23 114 -26 893 l-4 792 1771 0 1771 0 -4 -787z m-4822 -1828 c159 -54 288 -170 356 -321 17 -36 28 -72 25 -79 -5 -15 -134 -51 -276 -76 -133 -24 -379 -26 -535 -4 -111 15 -293 59 -308 74 -12 12 26 105 69 170 73 110 193 201 319 242 92 29 253 27 350 -6z m3190 14 c170 -33 348 -190 415 -367 l19 -50 -27 -11 c-113 -46 -349 -82 -542 -82 -192 0 -429 36 -542 82 -26 10 -26 12 -13 48 56 160 195 302 353 361 93 35 218 42 337 19z m-3092 -882 c322 -85 585 -301 737 -606 37 -74 80 -202 95 -285 l7 -36 -321 0 -321 0 -26 53 c-103 203 -259 387 -444 524 -149 110 -275 173 -460 229 l-75 22 75 35 c157 73 284 98 485 93 121 -3 169 -8 248 -29z m3148 18 c354 -66 648 -283 811 -600 48 -95 91 -218 103 -297 l7 -48 -320 0 -321 0 -29 58 c-179 351 -489 617 -857 735 -44 14 -89 27 -100 29 -47 9 157 89 300 118 114 23 295 25 406 5z m-4108 -430 c301 -52 543 -202 730 -450 127 -169 216 -428 217 -629 1 -117 56 -186 156 -194 67 -6 122 23 154 80 21 38 22 48 17 172 -3 72 -9 141 -13 154 l-6 22 272 0 272 0 -7 -32 c-79 -365 -295 -652 -613 -812 -132 -66 -335 -116 -473 -116 l-69 0 0 148 c0 241 -21 360 -90 523 -155 364 -536 619 -925 619 l-54 0 6 33 c27 142 114 350 188 450 35 47 36 47 94 47 32 0 97 -7 144 -15z m3233 0 c129 -23 211 -49 323 -105 330 -165 568 -495 610 -842 6 -46 14 -117 19 -159 10 -86 28 -117 83 -148 74 -42 176 -16 220 56 22 35 24 48 22 148 -1 61 -6 131 -11 158 l-9 47 268 0 c215 0 269 -3 269 -13 0 -7 -10 -51 -21 -97 -59 -233 -186 -432 -378 -591 -215 -180 -484 -269 -765 -256 -156 7 -285 40 -430 110 -311 150 -530 419 -613 752 -22 92 -27 132 -27 240 1 250 59 447 191 648 l45 67 57 0 c32 0 98 -7 147 -15z m-3446 -869 c249 -82 430 -268 490 -502 16 -63 20 -111 20 -256 l0 -178 -381 0 c-436 0 -465 4 -619 77 -171 82 -312 252 -366 443 -11 37 -18 117 -21 248 l-5 193 413 -3 c365 -4 420 -6 469 -22z"/>
 <path d="M833 7855 c-345 -62 -645 -314 -769 -643 -69 -186 -64 85 -64 -3290 l0 -3049 25 -99 c70 -276 260 -520 508 -654 95 -52 227 -96 325 -110 55 -8 1292 -10 4312 -8 l4235 3 90 28 c394 121 681 446 735 832 8 58 10 924 8 3120 l-3 3040 -23 79 c-28 101 -107 267 -163 342 -83 115 -225 241 -329 294 -80 41 -180 8 -219 -74 -46 -94 -19 -156 112 -255 112 -84 173 -156 227 -266 77 -159 71 122 68 -3240 l-3 -3010 -27 -80 c-80 -235 -250 -396 -488 -462 l-85 -23 -4185 0 c-4142 0 -4186 1 -4264 20 -193 49 -360 182 -449 360 -27 53 -54 126 -62 165 -13 60 -15 485 -15 3058 0 3351 -7 3053 76 3223 70 143 195 261 350 330 105 46 166 54 462 54 252 0 276 2 312 20 60 31 85 73 85 147 0 69 -17 101 -75 141 -32 22 -38 22 -334 21 -200 -1 -325 -5 -373 -14z"/>
 <path d="M1312 6990 c-225 -60 -377 -210 -433 -427 -19 -74 -19 -136 -19 -2629 0 -1804 3 -2569 11 -2606 6 -29 29 -91 51 -138 76 -159 225 -276 400 -315 66 -14 422 -15 3828 -13 l3755 3 66 23 c144 49 278 163 344 294 71 142 66 -70 63 2783 l-3 2570 -23 67 c-30 90 -111 208 -180 265 -147 120 -394 180 -479 117 -53 -40 -68 -71 -68 -139 0 -100 47 -150 158 -165 37 -6 84 -17 105 -25 47 -20 107 -78 135 -130 l22 -40 0 -2550 0 -2550 -29 -52 c-15 -28 -46 -66 -67 -83 -82 -65 244 -60 -3828 -60 -4185 0 -3764 -9 -3852 81 -87 89 -79 -174 -77 2679 l3 2535 29 53 c31 55 72 92 134 120 31 14 83 18 314 22 259 5 278 6 304 26 54 40 69 70 69 139 0 69 -15 99 -69 139 -26 20 -42 21 -309 23 -252 2 -290 0 -355 -17z"/>
 <path d="M3951 3108 c-56 -29 -81 -74 -81 -147 0 -67 27 -114 81 -141 45 -24 125 -26 173 -6 82 34 117 143 74 225 -32 63 -63 82 -139 88 -53 4 -71 1 -108 -19z"/>
 <path d="M4624 3111 c-117 -53 -119 -232 -3 -291 37 -19 62 -20 835 -20 787 0 797 0 833 21 54 30 74 65 79 130 6 75 -23 130 -83 159 -40 19 -62 20 -831 20 -748 0 -791 -1 -830 -19z"/>
 <path d="M3239 2260 c-109 -33 -153 -166 -85 -255 54 -71 -114 -65 1966 -65 2084 0 1912 -6 1967 66 55 73 30 191 -52 241 -29 17 -102 18 -1900 20 -1028 1 -1882 -2 -1896 -7z"/>
 </g>

</svg>