<!DOCTYPE svg PUBLIC "-//W3C//DTD SVG 20010904//EN" "http://www.w3.org/TR/2001/REC-SVG-20010904/DTD/svg10.dtd">
<svg version="1.0" xmlns="http://www.w3.org/2000/svg" width="1224px" height="886px" viewBox="0 0 12240 8860" preserveAspectRatio="xMidYMid meet">
<g id="layer101" fill="#ffffff" stroke="none">
 <path d="M93 8834 c-62 -36 -93 -95 -93 -174 0 -77 26 -127 84 -167 l41 -28 888 -3 887 -2 0 -969 0 -969 -56 -7 c-367 -46 -777 -274 -1025 -571 -373 -446 -475 -942 -348 -1689 158 -933 664 -2406 1352 -3934 103 -230 137 -284 194 -307 42 -18 125 -18 168 0 70 30 84 53 240 406 648 1466 1147 2931 1290 3790 51 304 58 386 59 635 1 213 -2 251 -22 342 -112 509 -418 916 -872 1157 -156 83 -367 152 -524 171 l-56 7 0 969 0 969 768 0 767 0 66 -325 66 -325 -83 0 c-118 0 -179 -15 -225 -57 -108 -98 -84 -269 46 -330 48 -22 60 -23 283 -23 l232 0 0 -220 0 -220 -130 0 c-152 0 -200 -16 -245 -79 -55 -80 -57 -168 -4 -241 48 -66 90 -80 249 -80 l135 0 0 -117 0 -118 -151 -5 c-145 -5 -152 -6 -186 -32 -65 -50 -98 -128 -84 -202 11 -59 61 -121 116 -145 l49 -21 1953 2 c1933 3 1953 3 1987 23 19 11 48 37 65 58 26 33 31 48 34 107 4 61 1 75 -22 114 -16 28 -44 56 -70 71 -40 24 -51 25 -184 25 l-142 0 0 120 0 120 137 0 c161 0 202 14 249 82 26 37 29 50 29 119 0 71 -2 80 -31 116 -16 21 -50 48 -74 61 -39 19 -59 22 -177 22 l-133 0 0 220 0 220 228 0 c134 0 243 5 267 11 25 7 56 27 81 54 93 96 72 244 -44 312 -40 24 -58 27 -159 31 -109 4 -113 5 -108 26 11 47 125 612 125 619 0 4 155 7 345 7 l345 0 0 -2457 -1 -2458 -82 -39 c-149 -70 -271 -220 -324 -396 -14 -47 -17 -126 -20 -525 -3 -258 -2 -489 2 -511 8 -56 50 -117 99 -146 37 -21 56 -23 184 -26 l142 -4 0 -114 0 -114 -240 0 c-222 0 -244 -2 -284 -21 -110 -51 -147 -199 -75 -299 60 -83 24 -80 798 -80 680 0 685 0 729 21 112 55 142 211 59 306 -60 68 -82 73 -349 73 l-238 0 0 115 0 115 123 0 c67 0 140 5 162 11 59 16 120 84 134 149 14 64 15 830 1 949 -13 115 -43 199 -101 286 -64 95 -145 166 -241 213 l-77 37 -1 2458 0 2457 645 0 645 0 0 -864 0 -864 -66 -16 c-223 -56 -430 -187 -569 -361 -73 -91 -158 -265 -187 -380 -26 -107 -30 -319 -9 -475 98 -728 297 -1469 502 -1870 115 -226 228 -356 368 -427 51 -25 66 -28 161 -28 99 0 109 2 175 34 196 96 373 380 533 856 192 570 357 1418 339 1740 -20 343 -215 642 -537 818 -61 33 -205 86 -277 102 l-33 7 0 864 0 864 663 0 663 0 50 25 c69 35 98 80 102 166 5 84 -20 135 -87 179 l-44 30 -5986 0 -5986 0 -42 -26z m7408 -699 l-66 -325 -1527 0 c-841 0 -1528 2 -1528 4 0 8 -118 590 -125 619 l-7 27 1660 0 1659 0 -66 -325z m-311 -955 l0 -220 -1280 0 -1280 0 0 220 0 220 1280 0 1280 0 0 -220z m0 -740 l0 -120 -1280 0 -1280 0 0 120 0 120 1280 0 1280 0 0 -120z m3170 -352 c0 -195 3 -228 19 -263 63 -138 248 -154 345 -32 l31 39 3 239 c2 142 7 239 12 239 22 0 143 -64 198 -105 108 -79 197 -213 223 -336 51 -235 -132 -1188 -338 -1759 -81 -226 -195 -442 -267 -509 l-26 -24 -26 24 c-79 73 -202 315 -289 569 -124 363 -252 923 -305 1338 -24 182 -25 297 -5 375 35 133 128 264 242 340 59 39 151 85 176 86 4 1 7 -99 7 -221z m-8460 -246 l0 -267 -296 -295 c-162 -162 -302 -308 -311 -325 -58 -109 -17 -237 92 -286 47 -22 92 -24 149 -7 33 9 74 45 203 172 l162 159 3 -530 3 -530 28 -40 c87 -125 277 -116 345 17 21 42 22 57 22 249 l0 205 158 -156 c95 -95 172 -163 194 -173 113 -46 247 13 278 123 32 117 19 137 -331 487 l-299 300 0 584 0 584 46 -7 c25 -3 94 -22 152 -41 446 -150 770 -523 863 -996 18 -91 15 -368 -5 -534 -89 -720 -399 -1737 -937 -3077 -68 -171 -296 -715 -308 -737 -12 -20 -15 -12 -161 334 -380 900 -707 1806 -894 2475 -200 718 -271 1253 -207 1567 99 480 446 855 916 989 44 12 92 23 108 23 l27 1 0 -268z m7035 -2683 c51 -14 130 -93 144 -146 7 -23 11 -168 11 -375 l0 -338 -220 0 -220 0 0 348 c0 321 2 350 20 390 47 103 153 152 265 121z"/>
 </g>

</svg>