<!DOCTYPE svg PUBLIC "-//W3C//DTD SVG 20010904//EN" "http://www.w3.org/TR/2001/REC-SVG-20010904/DTD/svg10.dtd">
<svg version="1.0" xmlns="http://www.w3.org/2000/svg" width="725px" height="696px" viewBox="0 0 7250 6960" preserveAspectRatio="xMidYMid meet">
<g id="layer101" fill="#ffffff" stroke="none">
 <path d="M200 6934 c-65 -55 -60 84 -60 -1786 0 -1602 1 -1705 18 -1737 9 -19 30 -44 45 -55 l28 -21 1620 -3 1619 -2 0 -215 0 -215 -1685 0 c-1862 0 -1724 5 -1765 -63 -20 -31 -20 -61 -20 -1387 0 -1326 0 -1356 20 -1387 10 -18 33 -39 49 -48 27 -13 392 -15 3558 -15 3481 0 3528 0 3560 20 68 41 63 -62 63 1430 0 1492 5 1389 -63 1430 -31 20 -63 20 -1724 20 l-1693 0 0 215 0 215 1624 2 1625 3 28 21 c15 11 36 36 45 55 17 32 18 135 18 1737 0 1870 5 1731 -60 1786 l-32 26 -3393 0 -3393 0 -32 -26z m810 -1520 l0 -1246 21 -38 c11 -20 35 -45 52 -56 31 -18 71 -19 1382 -19 1311 0 1351 1 1382 19 17 11 41 36 52 56 l21 38 0 1246 0 1246 1445 0 1445 0 0 -1515 0 -1515 -3185 0 -3185 0 0 1515 0 1515 285 0 285 0 0 -1246z m2610 91 l0 -1155 -1155 0 -1155 0 0 1155 0 1155 1155 0 1155 0 0 -1155z m3330 -4055 l0 -1150 -3325 0 -3325 0 0 1150 0 1150 3325 0 3325 0 0 -1150z"/>
 <path d="M4281 5642 c-19 -9 -44 -30 -55 -45 -21 -28 -21 -38 -24 -729 -2 -696 -2 -700 19 -737 11 -21 35 -46 52 -57 31 -18 65 -19 1017 -19 929 0 987 1 1018 18 18 10 42 32 52 50 19 31 20 55 20 739 l0 706 -26 32 c-54 64 12 60 -1061 60 -911 0 -980 -1 -1012 -18z m939 -787 l0 -505 -360 0 -360 0 0 505 0 505 360 0 360 0 0 -505z m860 0 l0 -505 -285 0 -285 0 0 505 0 505 285 0 285 0 0 -505z"/>
 <path d="M2900 5510 l0 -150 220 0 220 0 0 150 0 150 -220 0 -220 0 0 -150z"/>
 <path d="M1160 2030 l0 -150 360 0 360 0 0 -140 0 -140 -360 0 -360 0 0 -440 0 -440 510 0 510 0 0 150 0 150 -360 0 -360 0 0 140 0 140 360 0 360 0 0 440 0 440 -510 0 -510 0 0 -150z"/>
 <path d="M2460 1450 l0 -730 515 0 515 0 0 730 0 730 -150 0 -150 0 0 -290 0 -290 -215 0 -215 0 0 290 0 290 -150 0 -150 0 0 -730z m730 -290 l0 -140 -215 0 -215 0 0 140 0 140 215 0 215 0 0 -140z"/>
 <path d="M3770 1450 l0 -730 150 0 150 0 0 580 0 580 360 0 360 0 0 150 0 150 -510 0 -510 0 0 -730z"/>
 <path d="M5070 1450 l0 -730 510 0 510 0 0 150 0 150 -360 0 -360 0 0 140 0 140 360 0 360 0 0 150 0 150 -360 0 -360 0 0 140 0 140 360 0 360 0 0 150 0 150 -510 0 -510 0 0 -730z"/>
 </g>

</svg>