<!DOCTYPE svg PUBLIC "-//W3C//DTD SVG 20010904//EN" "http://www.w3.org/TR/2001/REC-SVG-20010904/DTD/svg10.dtd">
<svg version="1.0" xmlns="http://www.w3.org/2000/svg" width="250px" height="217px" viewBox="0 0 2500 2170" preserveAspectRatio="xMidYMid meet">
<g id="layer101" fill="#ffffff" stroke="none">
 <path d="M47 2163 c-15 -15 -4 -76 63 -346 39 -155 73 -289 75 -297 4 -12 -7 -19 -38 -27 -49 -13 -106 -64 -130 -116 -15 -30 -17 -73 -17 -291 l0 -256 63 0 c124 0 271 52 371 131 55 44 106 53 106 19 0 -16 -7 -20 -35 -20 -49 0 -71 -42 -39 -74 13 -14 49 -16 243 -16 249 0 256 1 249 57 -3 24 -8 28 -40 31 -30 3 -38 7 -38 23 0 17 8 19 91 19 83 0 90 -2 84 -17 -5 -10 -10 -65 -13 -122 -4 -94 -2 -109 23 -172 l27 -69 54 0 c30 0 54 -4 54 -8 0 -4 -18 -26 -40 -47 -23 -22 -40 -49 -40 -61 0 -32 28 -57 56 -50 23 6 24 4 24 -38 0 -39 -3 -45 -31 -56 -16 -7 -42 -29 -57 -48 -26 -34 -27 -41 -30 -174 l-4 -138 111 0 111 0 0 40 0 40 60 0 60 0 0 65 c0 84 -25 136 -80 167 -27 15 -40 30 -40 44 0 17 5 20 25 16 14 -2 32 1 40 8 26 21 17 54 -25 95 -37 36 -40 43 -40 92 l0 53 54 0 54 0 27 69 c25 63 27 78 23 172 -3 57 -8 112 -13 122 -6 15 1 17 84 17 83 0 91 -2 91 -19 0 -16 -8 -20 -37 -23 -33 -3 -38 -7 -41 -31 -7 -56 0 -57 249 -57 194 0 230 2 243 16 32 32 10 74 -39 74 -28 0 -35 4 -35 20 0 34 51 25 106 -19 100 -79 247 -131 371 -131 l63 0 0 255 c0 195 -3 264 -14 289 -23 55 -83 105 -148 123 -32 9 -58 20 -58 25 0 5 41 139 91 298 50 160 89 302 87 318 -3 23 -8 27 -40 30 l-37 3 -55 -173 c-30 -95 -72 -228 -92 -295 -21 -68 -40 -123 -44 -123 -3 0 -36 125 -74 278 -38 152 -73 285 -78 295 -5 10 -20 17 -37 17 -60 0 -60 -6 23 -335 42 -168 76 -309 76 -315 0 -6 -51 -10 -135 -10 l-135 0 0 -73 c0 -40 6 -96 14 -125 l13 -52 -178 0 -179 0 0 80 0 80 -61 0 -60 0 3 208 c3 203 4 208 31 263 32 66 99 132 165 162 39 18 71 22 182 25 75 2 141 9 148 15 7 5 12 24 10 41 l-3 31 -665 0 -665 0 -3 -31 c-2 -17 3 -36 10 -41 7 -6 73 -13 148 -15 111 -3 143 -7 182 -25 66 -30 133 -96 165 -162 27 -55 28 -60 31 -263 l3 -208 -65 0 -66 0 0 -80 0 -80 -175 0 -175 0 11 28 c6 15 13 71 16 125 l6 97 -157 0 c-145 0 -157 1 -152 18 3 9 46 149 96 310 98 316 100 332 41 332 -16 0 -33 -6 -38 -12 -5 -7 -49 -142 -98 -300 -49 -158 -90 -286 -91 -285 -2 1 -32 122 -69 267 -87 351 -80 330 -119 330 -18 0 -36 -3 -39 -7z m1340 -136 c-23 -29 -54 -77 -67 -107 -24 -53 -25 -63 -28 -322 l-3 -268 60 0 61 0 0 -35 0 -35 -160 0 -160 0 0 35 0 35 61 0 60 0 -3 268 c-3 259 -4 269 -28 322 -13 30 -44 78 -67 107 l-43 53 180 0 180 0 -43 -53z m-818 -664 c-28 -148 -107 -270 -225 -348 -64 -43 -173 -84 -221 -85 l-33 0 0 190 c0 212 5 235 63 270 29 18 51 20 228 20 l196 0 -8 -47z m1772 32 c16 -9 39 -30 49 -48 18 -29 20 -51 20 -224 l0 -193 -32 0 c-49 1 -158 42 -222 85 -122 81 -192 192 -230 368 l-6 27 195 0 c157 0 202 -3 226 -15z m-422 -270 l20 -35 -689 0 -689 0 20 35 21 35 648 0 648 0 21 -35z m-1129 -145 c0 -18 -7 -20 -80 -20 -73 0 -80 2 -80 20 0 18 7 20 80 20 73 0 80 -2 80 -20z m546 0 c34 -29 46 -172 20 -235 l-15 -35 -91 0 -91 0 -16 37 c-11 27 -14 59 -11 115 5 84 23 123 60 131 36 8 128 -1 144 -13z m534 0 c0 -18 -7 -20 -80 -20 -73 0 -80 2 -80 20 0 18 7 20 80 20 73 0 80 -2 80 -20z m-670 -805 c0 -69 -3 -85 -15 -85 -12 0 -15 14 -15 66 0 57 11 104 25 104 3 0 5 -38 5 -85z m130 3 c0 -4 -7 -8 -15 -8 -10 0 -15 10 -15 28 1 26 1 26 15 8 8 -11 15 -23 15 -28z"/>
 </g>

</svg>