<!DOCTYPE svg PUBLIC "-//W3C//DTD SVG 20010904//EN" "http://www.w3.org/TR/2001/REC-SVG-20010904/DTD/svg10.dtd">
<svg version="1.0" xmlns="http://www.w3.org/2000/svg" width="1406px" height="1600px" viewBox="0 0 14060 16000" preserveAspectRatio="xMidYMid meet">
<g id="layer101" fill="#ffffff" stroke="none">
 <path d="M800 15990 c-188 -6 -211 -9 -273 -33 -221 -84 -419 -289 -495 -512 l-27 -80 0 -745 c0 -831 -2 -798 72 -1000 38 -102 122 -261 172 -324 17 -21 31 -42 31 -47 0 -4 46 -54 103 -111 160 -161 333 -268 547 -338 102 -33 469 -140 585 -170 39 -10 153 -42 255 -70 102 -28 253 -69 335 -92 83 -22 195 -53 250 -68 55 -15 188 -51 295 -80 107 -29 242 -65 300 -81 58 -16 121 -34 141 -39 33 -9 53 -35 263 -347 l226 -338 0 -198 0 -199 -140 -146 c-202 -212 -328 -376 -467 -605 -62 -102 -169 -312 -214 -420 -52 -122 -138 -380 -170 -509 -37 -148 -85 -431 -93 -548 -33 -457 -109 -1720 -156 -2605 -18 -341 -10 -476 41 -710 118 -532 437 -1002 904 -1330 155 -109 463 -256 615 -295 19 -4 89 -23 155 -41 l120 -32 807 -6 c443 -3 810 -9 814 -13 4 -4 11 -56 16 -115 33 -428 166 -924 361 -1348 98 -212 154 -312 312 -555 459 -704 1183 -1281 1990 -1585 315 -118 763 -221 1067 -245 156 -12 604 -12 768 0 553 40 1207 252 1720 555 355 210 629 432 935 756 622 659 1030 1601 1085 2504 20 335 8 720 -31 950 -115 684 -381 1309 -784 1840 -568 750 -1334 1265 -2260 1518 -481 132 -1127 169 -1629 92 -261 -40 -547 -104 -693 -155 -31 -11 -61 -16 -65 -12 -12 12 -25 149 -38 392 -24 477 -46 668 -106 927 -59 256 -127 447 -250 702 -185 384 -336 599 -641 911 l-113 115 0 205 0 206 216 324 c118 179 221 331 229 338 7 8 53 25 101 38 49 13 141 38 204 56 63 17 144 39 180 48 542 144 1621 447 1770 496 286 96 571 346 725 637 90 169 139 344 155 551 13 160 12 1145 0 1265 -13 121 -32 187 -86 291 -99 193 -268 338 -482 414 l-73 26 -4687 -2 c-2578 -1 -4779 -5 -4892 -8z m1132 -977 c3 -507 3 -501 70 -564 84 -79 205 -101 304 -55 57 26 118 92 136 145 8 25 13 179 15 484 l4 447 1134 0 1133 0 17 -72 c9 -40 25 -116 35 -168 11 -52 46 -228 80 -390 33 -162 67 -326 74 -365 l14 -69 -57 -62 c-31 -34 -76 -99 -100 -145 -24 -46 -45 -85 -46 -86 -1 -2 -25 9 -54 22 -91 44 -164 58 -264 50 -157 -12 -263 -52 -339 -127 -52 -52 -157 -202 -549 -787 -208 -312 -352 -517 -363 -519 -10 -2 -64 8 -120 23 -55 15 -141 37 -191 51 -263 69 -346 91 -510 135 -269 73 -401 109 -490 134 -44 12 -123 34 -175 48 -52 15 -167 47 -255 73 -88 25 -189 54 -225 65 -191 54 -275 94 -371 176 -107 91 -175 179 -233 303 -72 154 -70 124 -74 837 l-3 643 26 52 c44 88 120 154 194 169 20 4 293 7 608 8 l572 1 3 -457z m3802 440 c-2 -10 -19 -97 -39 -193 -70 -353 -125 -613 -130 -618 -10 -11 -115 -14 -115 -4 0 5 -18 97 -40 203 -22 107 -58 284 -80 394 -22 110 -42 208 -44 218 -4 16 12 17 224 17 212 0 228 -1 224 -17z m2817 -230 c0 -137 4 -342 8 -458 9 -239 14 -260 88 -325 109 -96 262 -93 366 8 74 71 70 47 81 560 l9 463 586 -3 c573 -3 587 -3 632 -24 51 -24 111 -79 134 -125 31 -59 37 -201 32 -774 -5 -613 -8 -647 -66 -770 -108 -232 -281 -388 -511 -463 -153 -50 -719 -209 -1250 -352 -107 -29 -240 -65 -295 -80 -271 -75 -483 -131 -506 -133 -24 -2 -52 37 -341 468 -563 843 -575 858 -717 928 l-66 32 -165 0 c-159 0 -167 -1 -223 -28 -32 -15 -61 -27 -66 -27 -5 0 -24 30 -42 66 -19 36 -64 102 -101 147 l-66 83 13 59 c12 57 24 115 95 460 36 172 75 365 91 445 6 30 13 63 15 73 5 16 68 17 1135 17 l1129 0 1 -247z m-2920 -1164 c94 -47 141 -123 158 -252 21 -151 28 -134 -132 -300 l-142 -148 -144 144 -144 145 6 113 c6 134 17 177 59 225 84 95 232 127 339 73z m-851 -735 l322 -327 -33 -31 c-19 -17 -90 -79 -159 -136 -69 -57 -130 -109 -136 -115 -6 -5 -31 -26 -55 -46 -24 -20 -143 -119 -264 -220 -434 -362 -539 -449 -544 -449 -7 0 -75 103 -197 294 l-83 128 51 82 c109 174 759 1146 767 1146 5 0 154 -147 331 -326z m1815 298 c36 -49 706 -1054 751 -1125 36 -59 41 -73 32 -91 -12 -23 -230 -351 -252 -378 -7 -10 -16 -18 -20 -18 -7 0 -619 500 -781 638 -11 10 -85 72 -165 138 -80 66 -165 139 -190 162 -25 23 -49 42 -55 42 -5 0 139 149 320 330 181 182 332 330 335 330 3 0 14 -13 25 -28z m-958 -1109 c161 -132 560 -461 592 -488 48 -41 215 -180 361 -300 207 -170 214 -178 121 -130 -147 74 -437 169 -649 211 -269 54 -620 67 -896 34 -281 -33 -648 -140 -868 -251 -21 -11 -38 -17 -38 -15 0 5 401 343 630 531 80 65 147 121 150 125 9 10 404 335 435 358 17 12 33 22 36 22 4 0 60 -44 126 -97z m4 -1198 c336 -25 604 -97 874 -232 440 -221 794 -552 1066 -998 199 -327 323 -677 391 -1102 19 -117 22 -178 22 -398 0 -223 -3 -279 -22 -394 -66 -395 -214 -798 -444 -1215 -66 -119 -168 -284 -185 -298 -10 -8 -31 -4 -86 15 -69 25 -142 46 -347 100 -693 185 -1826 325 -2885 357 l-339 10 -29 28 c-29 27 -178 205 -210 252 -113 162 -227 367 -272 490 -48 130 -96 288 -121 395 -27 112 -29 134 -28 330 0 183 4 231 28 370 63 365 143 606 303 914 31 58 64 118 74 133 11 14 19 29 19 33 0 14 122 189 198 284 108 135 339 363 457 451 359 268 751 426 1176 474 151 18 147 18 360 1z m4022 -3937 c3 -172 3 -475 0 -673 l-6 -361 -76 8 c-117 11 -414 64 -526 93 -144 37 -347 102 -368 117 -14 10 -20 39 -29 133 l-11 120 83 120 c180 260 363 451 560 582 75 50 234 134 300 159 71 26 66 48 73 -298z m680 262 c85 -38 203 -106 296 -172 69 -49 245 -222 338 -333 102 -121 227 -306 322 -479 12 -21 21 -39 19 -40 -99 -60 -567 -193 -824 -236 -206 -34 -283 -39 -288 -20 -11 37 -18 673 -11 987 l7 345 27 -7 c14 -4 66 -24 114 -45z m1343 -373 c137 -79 278 -169 329 -211 34 -28 41 -19 -70 -100 -75 -54 -123 -79 -140 -72 -8 3 -32 38 -55 78 -60 106 -74 129 -171 275 -102 155 -107 154 107 30z m-8702 -114 c71 -107 148 -199 263 -315 121 -123 196 -184 244 -199 19 -6 183 -14 364 -19 923 -26 1877 -124 2563 -265 232 -47 519 -124 746 -199 193 -65 236 -76 294 -76 81 0 129 26 202 107 80 89 265 381 388 612 l60 113 6 -103 c3 -57 11 -189 18 -294 19 -299 17 -650 -6 -760 -50 -249 -156 -483 -311 -690 -60 -79 -227 -254 -295 -307 -160 -125 -350 -223 -570 -293 -184 -58 -154 -57 -1200 -62 -947 -5 -1404 3 -1549 27 -150 25 -400 127 -550 224 -140 90 -261 195 -370 319 -198 227 -306 435 -379 732 -26 107 -27 118 -26 390 0 176 8 407 22 620 31 472 33 505 37 505 2 0 24 -30 49 -67z m9579 -575 c424 -462 715 -999 861 -1588 37 -148 96 -495 96 -562 l0 -38 -555 0 c-305 0 -555 2 -555 4 0 3 -7 89 -15 193 -50 623 -126 1027 -290 1545 -36 114 -65 215 -65 225 1 12 53 52 152 118 84 55 179 121 212 147 34 26 64 48 68 48 3 0 45 -42 91 -92z m-1009 -500 c8 -24 33 -101 55 -173 136 -441 215 -887 256 -1432 l6 -83 -840 0 -841 0 0 705 0 705 23 5 c12 2 76 9 142 16 66 6 158 17 205 26 47 8 112 19 145 24 178 30 515 127 720 208 55 22 103 40 107 40 3 1 13 -18 22 -41z m-2734 -128 c179 -52 556 -121 730 -135 47 -3 93 -9 103 -11 16 -5 17 -47 17 -710 l0 -704 -840 0 -840 0 0 23 c0 29 0 29 104 141 311 335 505 735 571 1178 14 92 25 186 25 208 0 42 0 42 33 35 17 -4 61 -15 97 -25z m-1360 -2133 c0 -189 60 -704 115 -980 56 -287 85 -397 175 -687 32 -102 63 -202 69 -223 l10 -38 -87 -56 c-130 -83 -199 -130 -281 -192 l-74 -55 -55 59 c-279 307 -442 539 -609 870 -146 288 -255 597 -318 898 -21 102 -65 400 -65 443 0 12 81 14 560 14 l560 0 0 -53z m2210 -655 l0 -709 -94 -6 c-189 -13 -543 -76 -741 -133 -119 -34 -364 -117 -440 -148 -33 -13 -63 -21 -66 -18 -4 4 -26 61 -48 127 -137 393 -256 1017 -277 1453 l-7 142 837 0 836 0 0 -708z m2190 619 c0 -176 -61 -653 -115 -908 -52 -239 -173 -663 -205 -713 -8 -13 -20 -11 -87 14 -410 150 -856 256 -1150 273 l-113 6 0 709 0 708 835 0 835 0 0 -89z m1660 58 c0 -64 -43 -329 -77 -474 -60 -257 -118 -442 -199 -633 -160 -373 -424 -781 -684 -1054 l-85 -90 -115 84 c-63 46 -157 110 -208 142 -51 32 -99 65 -107 72 -11 12 -6 36 36 161 52 152 64 193 125 423 90 340 161 798 189 1215 3 50 8 111 11 138 l6 47 554 0 554 0 0 -31z m-3857 -2278 c5 -309 -1 -991 -9 -991 -2 0 -36 12 -76 26 -304 110 -621 391 -873 774 -81 123 -145 239 -145 264 0 12 49 35 195 89 162 60 444 127 707 167 101 15 186 28 189 29 3 1 9 -160 12 -358z m698 334 c283 -37 586 -112 844 -207 61 -23 111 -42 113 -43 4 -3 -87 -160 -144 -248 -220 -341 -497 -614 -759 -745 -88 -43 -205 -85 -214 -76 -9 9 -7 1308 2 1322 10 15 19 15 158 -3z m-2240 -612 c69 -120 227 -360 240 -369 5 -3 9 -9 9 -15 0 -8 -127 53 -205 99 -16 10 -52 31 -80 47 -102 59 -276 177 -270 184 11 11 230 160 236 160 4 1 35 -47 70 -106z m3903 -80 c-49 -39 -304 -193 -423 -256 l-113 -60 85 124 c46 68 113 174 147 234 94 164 72 158 212 63 l120 -82 -28 -23z"/>
 </g>

</svg>