<!DOCTYPE svg PUBLIC "-//W3C//DTD SVG 20010904//EN" "http://www.w3.org/TR/2001/REC-SVG-20010904/DTD/svg10.dtd">
<svg version="1.0" xmlns="http://www.w3.org/2000/svg" width="1284px" height="1600px" viewBox="0 0 12840 16000" preserveAspectRatio="xMidYMid meet">
<g id="layer101" fill="#ffffff" stroke="none">
 <path d="M6277 15980 c-95 -30 -166 -82 -577 -426 -1713 -1431 -3090 -2955 -4097 -4535 -193 -303 -309 -500 -527 -894 -85 -154 -306 -600 -384 -775 -228 -513 -265 -604 -358 -875 -169 -490 -284 -1065 -324 -1620 -15 -216 -13 -811 5 -1005 90 -979 382 -1878 886 -2726 458 -770 1141 -1497 1879 -1999 655 -446 1314 -743 2070 -936 286 -73 575 -123 940 -165 197 -22 820 -31 1058 -15 297 21 682 76 952 137 999 226 1865 645 2655 1283 598 482 1140 1117 1521 1778 85 148 265 500 318 623 302 698 460 1329 528 2100 20 226 17 886 -5 1085 -86 779 -233 1338 -539 2040 -236 541 -441 949 -731 1450 -546 944 -1311 1972 -2162 2905 -480 525 -1160 1192 -1725 1691 -192 169 -528 455 -685 584 -61 49 -141 116 -179 148 -149 127 -241 167 -379 166 -51 0 -104 -7 -140 -19z m267 -1132 c854 -720 1551 -1388 2232 -2138 1002 -1105 1837 -2307 2384 -3435 137 -282 129 -264 260 -565 129 -296 166 -390 223 -565 272 -831 342 -1676 212 -2555 -201 -1360 -925 -2609 -2020 -3485 -653 -522 -1416 -886 -2241 -1069 -602 -133 -1243 -163 -1859 -86 -1320 166 -2536 806 -3429 1804 -671 750 -1135 1696 -1310 2671 -69 381 -91 674 -83 1065 18 793 166 1463 484 2185 166 378 197 444 337 725 544 1087 1357 2248 2320 3310 460 506 968 1016 1450 1455 55 50 104 95 110 100 227 207 787 685 802 685 4 0 61 -46 128 -102z"/>
 <path d="M6030 10544 c-825 -80 -1581 -395 -2225 -928 -212 -176 -483 -460 -649 -681 -257 -342 -467 -740 -601 -1139 -138 -409 -200 -758 -214 -1201 -12 -398 18 -694 109 -1070 280 -1159 1066 -2146 2140 -2684 404 -202 761 -316 1210 -385 414 -64 882 -61 1295 9 574 97 1096 306 1595 638 669 447 1219 1129 1515 1882 301 764 368 1626 189 2400 -133 572 -377 1096 -724 1555 -263 347 -617 682 -980 926 -576 388 -1217 615 -1920 679 -201 18 -543 18 -740 -1z m750 -920 c725 -84 1399 -420 1911 -951 449 -468 737 -1035 844 -1667 52 -309 54 -652 6 -982 -114 -772 -509 -1470 -1123 -1981 -422 -353 -956 -593 -1518 -682 -910 -145 -1867 132 -2560 742 -504 444 -836 987 -1000 1637 -88 347 -109 713 -64 1110 111 984 699 1877 1562 2373 593 341 1266 480 1942 401z"/>
 </g>

</svg>