<svg xmlns="http://www.w3.org/2000/svg" xmlns:xlink="http://www.w3.org/1999/xlink" width="642" height="800" viewBox="0 0 642 800"><defs><path id="czwia" d="M643 320.67c0 20.127-2.014 40.42-5.706 60.21-.167 1.175-.839 4.697-2.181 10.734-4.867 21.803-12.081 42.935-21.479 63.229-34.566 81.342-110.747 206.289-277.371 340.126-4.196 3.354-9.23 5.031-14.263 5.031-5.034 0-10.068-1.677-14.263-5.031C140.945 661.132 64.932 536.185 30.365 454.843a315.705 315.705 0 0 1-21.478-63.229c-1.343-6.037-2.014-9.56-2.181-10.734C2.846 361.09 1 340.797 1 320.67 1 143.9 144.97 0 321.83 0 498.692 0 642.664 143.9 643 320.67zm-45.642-.167c0-151.782-123.668-275.388-275.526-275.388S46.306 168.721 46.306 320.503c0 17.61 1.678 35.053 5.034 52.327 0 .503.168.839.168 1.174.168.839.504 3.354 1.51 7.212v.335c4.363 18.784 10.572 37.233 18.626 54.676.168.167.168.502.336.67 31.378 74.298 100.175 187.673 249.852 311.279 149.676-123.606 218.475-236.98 249.853-311.279.168-.168.168-.503.336-.67a266.207 266.207 0 0 0 18.625-54.676v-.335a423.637 423.637 0 0 0 1.51-7.212c0-.335.168-.67.168-1.006 3.356-17.107 5.034-34.717 5.034-52.495zm-71.818 3.69c0 112.201-91.45 203.606-203.708 203.606s-203.708-91.405-203.708-203.606 91.45-203.606 203.708-203.606c112.257 0 203.708 91.405 203.708 203.606zm-45.305 0c0-87.212-71.148-158.323-158.403-158.323-87.256 0-158.402 71.111-158.402 158.323 0 87.211 70.98 158.323 158.402 158.323 87.424 0 158.403-71.112 158.403-158.323z"/></defs><g><g transform="translate(-1)"><use xlink:href="#czwia"/></g></g></svg>