<?xml version="1.0" encoding="UTF-8" standalone="no"?>
<!DOCTYPE svg PUBLIC "-//W3C//DTD SVG 1.1//EN" "http://www.w3.org/Graphics/SVG/1.1/DTD/svg11.dtd">
<svg version="1.1" xmlns="http://www.w3.org/2000/svg" xmlns:xlink="http://www.w3.org/1999/xlink" preserveAspectRatio="xMidYMid meet" viewBox="0 0 640 640" width="640" height="640"><defs><path d="M474.49 267.7C468.06 267.7 462.86 272.9 462.86 279.34C462.86 285.77 468.06 290.97 474.49 290.97C481.55 290.97 516.84 290.97 580.37 290.97L614.09 605.06L26.38 605.06L65.97 290.97C129.61 290.97 164.97 290.97 172.04 290.97C178.47 290.97 183.67 285.77 183.67 279.34C183.67 272.9 178.47 267.7 172.04 267.7C163.6 267.7 121.4 267.7 45.45 267.7L0 628.32L640 628.32L601.27 267.7C525.2 267.7 482.94 267.7 474.49 267.7Z" id="b4zLnthJh3"></path><path d="M334.6 11.96L340.28 12.34L345.85 12.86L351.29 13.54L356.61 14.37L361.8 15.35L366.87 16.47L371.81 17.75L376.63 19.17L381.32 20.74L385.88 22.46L390.32 24.32L394.63 26.33L398.81 28.48L402.86 30.78L406.78 33.23L410.58 35.82L414.24 38.56L417.77 41.43L421.18 44.46L424.45 47.62L427.58 50.93L430.59 54.38L433.46 57.97L436.2 61.7L438.81 65.58L441.28 69.59L443.62 73.75L445.82 78.04L447.88 82.47L449.81 87.05L451.6 91.76L453.26 96.61L454.77 101.59L456.15 106.72L457.39 111.98L458.49 117.38L459.45 122.91L460.27 128.58L460.51 130.47L460.74 132.37L460.94 134.28L461.13 136.19L461.3 138.11L461.45 140.04L461.59 141.97L461.7 143.91L461.81 145.86L461.89 147.81L461.95 149.77L462 151.73L462.03 153.71L462.05 155.69L462.04 157.67L462.02 159.66L461.98 161.66L461.93 163.66L461.85 165.67L461.76 167.68L461.65 169.7L461.53 171.73L461.38 173.76L461.22 175.79L461.05 177.84L460.85 179.88L460.64 181.94L460.41 183.99L460.16 186.06L459.9 188.12L459.61 190.2L459.31 192.27L459 194.36L458.66 196.44L458.31 198.54L457.94 200.63L457.56 202.73L457.15 204.84L456.73 206.95L456.3 209.06L454.02 219.4L451.59 229.52L449.03 239.43L446.33 249.14L443.52 258.63L440.59 267.91L437.55 276.98L434.42 285.83L431.21 294.48L427.91 302.91L424.55 311.13L421.12 319.13L417.64 326.92L414.12 334.49L410.56 341.85L406.97 348.99L403.36 355.91L399.75 362.61L396.13 369.1L392.52 375.37L388.92 381.42L385.35 387.25L381.81 392.86L378.32 398.25L374.87 403.41L371.48 408.36L368.16 413.08L364.91 417.59L361.75 421.86L358.68 425.92L355.71 429.75L352.86 433.35L350.12 436.73L347.5 439.88L345.03 442.81L342.69 445.51L340.51 447.98L338.5 450.23L336.65 452.24L334.98 454.03L334.97 454.03L334.96 454.04L334.96 454.05L334.95 454.05L334.95 454.06L334.94 454.07L334.93 454.07L334.92 454.08L334.92 454.09L334.91 454.09L334.9 454.1L334.9 454.11L334.88 454.12L334.87 454.12L334.87 454.13L334.85 454.14L334.84 454.15L334.81 454.18L334.78 454.2L334.77 454.21L334.76 454.22L334.75 454.22L334.74 454.23L334.74 454.24L334.73 454.24L334.71 454.26L334.71 454.26L334.7 454.27L334.69 454.28L334.69 454.28L334.85 454.7L334.99 455.12L335.12 455.55L335.24 455.97L335.33 456.4L335.41 456.83L335.48 457.26L335.53 457.69L335.56 458.12L335.57 458.55L335.57 458.98L335.56 459.4L335.53 459.83L335.48 460.25L335.42 460.67L335.35 461.09L335.26 461.5L335.15 461.91L335.03 462.31L334.9 462.72L334.75 463.11L334.58 463.5L334.4 463.88L334.21 464.26L334.01 464.63L333.79 464.99L333.55 465.35L333.3 465.69L333.04 466.03L332.77 466.36L332.48 466.68L332.18 466.98L331.87 467.28L331.54 467.57L331.2 467.85L330.85 468.11L330.48 468.36L330.1 468.6L329.71 468.83L329.31 469.04L329.01 469.2L328.7 469.36L328.39 469.51L328.09 469.67L327.78 469.83L327.48 469.99L327.17 470.15L326.87 470.31L326.57 470.47L326.27 470.63L325.97 470.8L325.66 470.96L325.36 471.12L325.06 471.29L324.76 471.46L324.47 471.62L324.17 471.79L323.87 471.96L323.57 472.12L323.28 472.29L322.98 472.46L322.69 472.63L322.4 472.8L322.1 472.98L321.81 473.15L321.52 473.32L321.23 473.49L320.94 473.67L320.65 473.84L320.36 474.02L320.07 474.19L319.78 474.37L319.5 474.55L319.21 474.73L318.93 474.9L318.64 475.08L318.36 475.26L318.08 475.44L317.8 475.62L317.52 475.8L317.35 475.91L317.19 476.02L317.02 476.12L316.86 476.23L316.7 476.34L316.53 476.45L316.37 476.55L316.21 476.66L316.05 476.77L315.88 476.88L315.72 476.99L315.56 477.09L315.4 477.2L315.24 477.31L315.08 477.42L314.92 477.53L314.76 477.64L314.6 477.75L314.44 477.86L314.28 477.97L314.12 478.08L313.96 478.19L313.81 478.3L313.65 478.41L313.49 478.52L313.33 478.63L313.17 478.74L313.02 478.86L312.86 478.97L312.7 479.08L312.55 479.19L312.39 479.3L312.23 479.42L312.08 479.53L311.92 479.64L311.76 479.76L311.61 479.87L311.45 479.98L311.3 480.1L311.14 480.21L310.98 480.32L310.83 480.43L310.67 480.54L310.51 480.64L310.35 480.74L310.18 480.84L310.02 480.93L309.86 481.03L309.69 481.12L309.52 481.2L309.36 481.28L309.19 481.36L309.02 481.44L308.85 481.52L308.68 481.59L308.51 481.66L308.34 481.72L308.16 481.78L307.99 481.84L307.82 481.9L307.64 481.96L307.47 482.01L307.29 482.06L307.12 482.1L306.94 482.15L306.76 482.19L306.59 482.22L306.41 482.26L306.23 482.29L306.05 482.32L305.88 482.35L305.7 482.37L305.52 482.39L305.34 482.41L305.16 482.42L304.98 482.44L304.8 482.45L304.62 482.45L304.45 482.46L304.27 482.46L304 482.45L303.73 482.45L303.46 482.43L303.19 482.41L302.93 482.38L302.66 482.35L302.4 482.31L302.13 482.26L301.87 482.21L301.61 482.15L301.35 482.09L301.09 482.02L300.83 481.94L300.57 481.86L300.32 481.77L300.07 481.68L299.82 481.58L299.57 481.48L299.32 481.37L299.08 481.25L298.84 481.13L298.6 481L298.36 480.86L298.13 480.72L297.9 480.58L297.67 480.43L297.45 480.27L297.23 480.11L297.01 479.94L296.79 479.76L296.58 479.58L296.38 479.4L296.17 479.21L295.97 479.01L295.78 478.81L295.59 478.6L295.4 478.39L295.22 478.17L295.04 477.94L294.87 477.71L294.59 477.32L294.34 476.92L294.1 476.51L293.88 476.1L293.67 475.68L293.49 475.26L293.32 474.83L293.17 474.4L293.04 473.96L292.93 473.52L292.83 473.08L292.76 472.63L292.7 472.19L292.65 471.74L292.63 471.29L292.62 470.85L292.63 470.4L292.65 469.95L292.7 469.51L292.75 469.07L292.83 468.63L292.92 468.19L293.03 467.75L293.16 467.33L293.3 466.9L293.46 466.48L293.64 466.07L293.83 465.66L294.04 465.26L294.26 464.87L294.5 464.48L294.76 464.1L295.03 463.74L295.32 463.38L295.62 463.03L295.94 462.69L296.27 462.36L296.62 462.04L296.99 461.74L297.37 461.45L297.55 461.31L297.74 461.18L297.92 461.05L298.11 460.91L298.29 460.78L298.48 460.65L298.66 460.51L298.85 460.38L299.03 460.25L299.22 460.12L299.4 459.98L299.59 459.85L299.78 459.72L299.96 459.59L300.15 459.46L300.34 459.33L300.52 459.2L300.71 459.07L300.9 458.94L301.09 458.81L301.27 458.68L301.46 458.55L301.65 458.42L301.84 458.29L302.03 458.16L302.22 458.04L302.41 457.91L302.6 457.78L302.78 457.65L302.97 457.53L303.16 457.4L303.35 457.27L303.54 457.15L303.74 457.02L303.93 456.9L304.12 456.77L304.31 456.65L304.5 456.52L304.69 456.4L304.88 456.27L305.01 456.19L305.13 456.11L305.26 456.04L305.38 455.96L305.51 455.88L305.63 455.81L305.76 455.73L305.89 455.65L306.02 455.58L306.14 455.5L306.27 455.43L306.4 455.36L306.53 455.28L306.66 455.21L306.79 455.14L306.92 455.06L307.05 454.99L307.18 454.92L307.31 454.84L307.45 454.77L307.58 454.7L307.71 454.63L307.84 454.55L307.97 454.48L308.1 454.41L308.23 454.34L308.37 454.27L308.5 454.19L308.63 454.12L308.76 454.05L308.89 453.97L309.02 453.9L309.15 453.83L309.28 453.75L309.41 453.68L309.54 453.61L309.67 453.53L309.8 453.46L309.93 453.38L310.06 453.31L308.34 451.45L306.45 449.37L304.39 447.07L302.18 444.54L299.82 441.79L297.32 438.82L294.7 435.62L291.95 432.21L289.08 428.57L286.12 424.72L283.05 420.64L279.9 416.34L276.67 411.83L273.36 407.1L269.99 402.15L266.57 396.98L263.1 391.59L259.59 385.99L256.05 380.18L252.48 374.14L248.91 367.9L245.33 361.44L241.75 354.76L238.18 347.87L234.63 340.77L231.11 333.46L227.63 325.93L224.19 318.2L220.8 310.25L217.48 302.09L214.22 293.73L211.05 285.15L207.96 276.36L204.96 267.37L202.07 258.17L199.28 248.76L196.62 239.15L194.08 229.32L191.68 219.3L189.43 209.06L188.99 206.95L188.57 204.84L188.17 202.74L187.78 200.64L187.41 198.54L187.06 196.45L186.73 194.36L186.41 192.28L186.11 190.2L185.83 188.13L185.56 186.06L185.32 184L185.09 181.94L184.87 179.89L184.68 177.84L184.5 175.8L184.34 173.77L184.2 171.74L184.07 169.71L183.96 167.69L183.87 165.68L183.8 163.67L183.74 161.67L183.7 159.67L183.68 157.68L183.67 155.69L183.69 153.71L183.72 151.74L183.76 149.78L183.83 147.82L183.91 145.86L184.01 143.92L184.13 141.97L184.26 140.04L184.42 138.11L184.59 136.19L184.77 134.28L184.98 132.37L185.2 130.47L185.44 128.58L186.26 122.91L187.22 117.38L188.32 111.98L189.57 106.72L190.95 101.59L192.46 96.61L194.12 91.76L195.91 87.05L197.84 82.47L199.91 78.04L202.11 73.75L204.45 69.59L206.92 65.58L209.52 61.7L212.26 57.97L215.14 54.38L218.14 50.93L221.28 47.62L224.55 44.46L227.96 41.43L231.49 38.56L235.15 35.82L238.95 33.23L242.87 30.78L246.92 28.48L251.1 26.33L255.41 24.32L259.85 22.46L264.41 20.74L269.1 19.17L273.92 17.75L278.86 16.47L283.92 15.35L289.12 14.37L294.43 13.54L299.87 12.86L305.43 12.34L311.12 11.96L316.93 11.73L322.86 11.66L328.79 11.73L334.6 11.96ZM312.84 35.17L307.99 35.47L303.27 35.88L298.66 36.42L294.16 37.07L289.78 37.85L285.52 38.74L281.37 39.76L277.33 40.89L273.41 42.15L269.6 43.52L265.91 45.02L262.33 46.63L258.86 48.37L255.51 50.23L252.27 52.21L249.14 54.31L246.13 56.53L243.23 58.88L240.44 61.35L237.76 63.94L235.19 66.65L232.74 69.48L230.4 72.44L228.17 75.52L226.05 78.72L224.04 82.04L222.14 85.49L220.35 89.06L218.67 92.76L217.1 96.58L215.65 100.52L214.3 104.59L213.06 108.78L211.93 113.1L210.91 117.54L210 122.11L209.2 126.8L208.51 131.61L208.29 133.31L208.09 135.01L207.91 136.72L207.74 138.44L207.59 140.17L207.46 141.9L207.34 143.64L207.24 145.38L207.15 147.13L207.07 148.89L207.02 150.65L206.98 152.42L206.95 154.2L206.94 155.98L206.95 157.77L206.97 159.56L207.01 161.36L207.06 163.17L207.13 164.98L207.21 166.8L207.31 168.62L207.43 170.45L207.56 172.29L207.71 174.13L207.87 175.98L208.05 177.83L208.24 179.68L208.45 181.55L208.68 183.41L208.92 185.29L209.18 187.16L209.45 189.05L209.74 190.94L210.04 192.83L210.36 194.73L210.7 196.63L211.05 198.53L211.41 200.45L211.8 202.36L212.19 204.28L214.24 213.57L216.42 222.69L218.71 231.64L221.13 240.41L223.65 249.01L226.27 257.43L228.98 265.68L231.78 273.75L234.66 281.64L237.61 289.35L240.63 296.88L243.7 304.23L246.81 311.4L249.98 318.38L253.17 325.18L256.39 331.8L259.64 338.23L262.89 344.47L266.15 350.53L269.41 356.4L272.66 362.08L275.89 367.57L279.1 372.87L282.28 377.97L285.42 382.88L288.51 387.6L291.55 392.13L294.52 396.46L297.43 400.59L300.27 404.53L303.02 408.26L305.68 411.8L308.25 415.14L310.71 418.27L313.06 421.21L315.29 423.94L317.39 426.47L319.36 428.79L321.19 430.91L322.87 432.82L324.55 430.91L326.37 428.79L328.34 426.47L330.44 423.95L332.67 421.22L335.02 418.28L337.48 415.15L340.04 411.81L342.7 408.28L345.45 404.54L348.29 400.61L351.2 396.48L354.18 392.15L357.21 387.63L360.31 382.91L363.44 378L366.62 372.89L369.83 367.6L373.06 362.11L376.31 356.43L379.57 350.56L382.83 344.51L386.09 338.26L389.33 331.83L392.55 325.21L395.75 318.41L398.91 311.43L402.03 304.26L405.1 296.91L408.12 289.38L411.07 281.66L413.95 273.77L416.75 265.7L419.46 257.45L422.08 249.03L424.61 240.43L427.02 231.65L429.32 222.7L431.49 213.58L433.54 204.28L433.94 202.36L434.32 200.45L434.69 198.53L435.04 196.63L435.37 194.73L435.69 192.83L435.99 190.93L436.28 189.05L436.55 187.16L436.81 185.29L437.05 183.41L437.28 181.54L437.49 179.68L437.68 177.83L437.86 175.97L438.02 174.13L438.17 172.29L438.3 170.45L438.42 168.62L438.52 166.8L438.6 164.98L438.67 163.17L438.72 161.36L438.76 159.56L438.78 157.76L438.79 155.97L438.78 154.19L438.75 152.42L438.71 150.65L438.65 148.88L438.58 147.13L438.49 145.38L438.39 143.63L438.27 141.89L438.13 140.16L437.98 138.44L437.81 136.72L437.63 135.01L437.43 133.31L437.22 131.61L436.52 126.8L435.72 122.11L434.81 117.54L433.79 113.1L432.67 108.78L431.43 104.59L430.08 100.52L428.63 96.58L427.06 92.76L425.38 89.06L423.59 85.49L421.7 82.04L419.69 78.72L417.57 75.52L415.34 72.44L413 69.48L410.54 66.65L407.98 63.94L405.3 61.35L402.51 58.88L399.61 56.53L396.6 54.31L393.47 52.21L390.23 50.23L386.88 48.37L383.41 46.63L379.83 45.02L376.14 43.52L372.33 42.15L368.41 40.89L364.37 39.76L360.22 38.74L355.96 37.85L351.58 37.07L347.08 36.42L342.47 35.88L337.74 35.47L332.9 35.17L327.94 34.99L322.87 34.93L317.79 34.99L312.84 35.17Z" id="cOFZo1pvq"></path><path d="M329.87 61.16L333.31 61.51L336.71 61.99L340.07 62.61L343.38 63.36L346.64 64.24L349.85 65.24L353 66.36L356.1 67.6L359.14 68.96L362.11 70.43L365.01 72.01L367.85 73.69L370.61 75.49L373.31 77.38L375.92 79.38L378.45 81.47L380.9 83.65L383.27 85.93L385.54 88.29L387.73 90.74L389.82 93.28L391.81 95.89L393.71 98.58L395.5 101.35L397.19 104.18L398.77 107.09L400.24 110.06L401.6 113.1L402.84 116.19L403.96 119.35L404.96 122.55L405.83 125.82L406.58 129.13L407.2 132.48L407.69 135.89L408.04 139.33L408.25 142.81L408.32 146.33L408.25 149.85L408.04 153.33L407.69 156.77L407.2 160.17L406.58 163.53L405.83 166.84L404.96 170.1L403.96 173.31L402.84 176.47L401.6 179.56L400.24 182.6L398.77 185.57L397.19 188.47L395.5 191.31L393.71 194.08L391.81 196.77L389.82 199.38L387.73 201.91L385.54 204.36L383.27 206.73L380.9 209L378.45 211.19L375.92 213.28L373.31 215.27L370.61 217.17L367.85 218.96L365.01 220.65L362.11 222.23L359.14 223.7L356.1 225.06L353 226.3L349.85 227.42L346.64 228.42L343.38 229.3L340.07 230.04L336.71 230.66L333.31 231.15L329.87 231.5L326.38 231.71L322.87 231.78L319.35 231.71L315.87 231.5L312.43 231.15L309.02 230.66L305.67 230.04L302.35 229.3L299.09 228.42L295.88 227.42L292.73 226.3L289.63 225.06L286.6 223.7L283.63 222.23L280.72 220.65L277.89 218.96L275.12 217.17L272.43 215.27L269.82 213.28L267.28 211.19L264.83 209L262.47 206.73L260.19 204.36L258.01 201.91L255.92 199.38L253.92 196.77L252.03 194.08L250.23 191.31L248.55 188.47L246.96 185.57L245.5 182.6L244.14 179.56L242.9 176.47L241.78 173.31L240.78 170.1L239.9 166.84L239.15 163.53L238.53 160.17L238.05 156.77L237.7 153.33L237.48 149.85L237.41 146.33L237.48 142.81L237.7 139.33L238.05 135.89L238.53 132.48L239.15 129.13L239.9 125.82L240.78 122.55L241.78 119.35L242.9 116.19L244.14 113.1L245.5 110.06L246.96 107.09L248.55 104.18L250.23 101.35L252.03 98.58L253.92 95.89L255.92 93.28L258.01 90.74L260.19 88.29L262.47 85.93L264.83 83.65L267.28 81.47L269.82 79.38L272.43 77.38L275.12 75.49L277.89 73.69L280.72 72.01L283.63 70.43L286.6 68.96L289.63 67.6L292.73 66.36L295.88 65.24L299.09 64.24L302.35 63.36L305.67 62.61L309.02 61.99L312.43 61.51L315.87 61.16L319.35 60.95L322.87 60.87L326.38 60.95L329.87 61.16ZM317.78 84.36L315.27 84.61L312.8 84.97L310.35 85.42L307.94 85.96L305.57 86.6L303.24 87.33L300.94 88.14L298.69 89.05L296.48 90.03L294.32 91.1L292.2 92.25L290.14 93.48L288.13 94.79L286.17 96.17L284.27 97.62L282.42 99.14L280.64 100.73L278.92 102.39L277.26 104.11L275.67 105.89L274.15 107.73L272.7 109.64L271.32 111.59L270.01 113.61L268.78 115.67L267.63 117.78L266.56 119.95L265.57 122.16L264.67 124.41L263.86 126.7L263.13 129.04L262.49 131.41L261.94 133.82L261.49 136.27L261.14 138.74L260.89 141.25L260.73 143.78L260.68 146.34L260.73 148.9L260.89 151.43L261.14 153.94L261.49 156.41L261.94 158.86L262.49 161.27L263.13 163.64L263.85 165.98L264.67 168.27L265.57 170.52L266.56 172.73L267.63 174.9L268.78 177.01L270.01 179.08L271.31 181.09L272.69 183.05L274.14 184.95L275.67 186.79L277.26 188.57L278.91 190.29L280.63 191.95L282.42 193.54L284.26 195.06L286.16 196.52L288.12 197.89L290.13 199.2L292.2 200.43L294.31 201.58L296.47 202.65L298.68 203.63L300.94 204.54L303.23 205.35L305.57 206.08L307.94 206.72L310.35 207.26L312.79 207.71L315.27 208.07L317.77 208.32L320.31 208.48L322.87 208.53L325.43 208.48L327.96 208.32L330.47 208.07L332.94 207.71L335.39 207.26L337.8 206.72L340.17 206.08L342.5 205.35L344.8 204.54L347.05 203.63L349.26 202.65L351.42 201.58L353.54 200.43L355.6 199.2L357.61 197.89L359.57 196.52L361.47 195.06L363.32 193.54L365.1 191.95L366.82 190.29L368.48 188.57L370.07 186.79L371.59 184.95L373.04 183.05L374.42 181.09L375.73 179.08L376.95 177.01L378.1 174.9L379.17 172.73L380.16 170.52L381.06 168.27L381.88 165.98L382.61 163.64L383.25 161.27L383.79 158.86L384.24 156.41L384.59 153.94L384.85 151.43L385 148.9L385.06 146.34L385 143.78L384.85 141.25L384.59 138.74L384.24 136.27L383.79 133.82L383.25 131.41L382.61 129.04L381.88 126.7L381.06 124.41L380.16 122.16L379.17 119.95L378.1 117.78L376.95 115.67L375.72 113.61L374.42 111.59L373.04 109.64L371.59 107.73L370.06 105.89L368.47 104.11L366.82 102.39L365.1 100.73L363.31 99.14L361.47 97.62L359.57 96.17L357.61 94.79L355.6 93.48L353.53 92.25L351.42 91.1L349.26 90.03L347.05 89.05L344.79 88.14L342.5 87.33L340.16 86.6L337.79 85.96L335.38 85.42L332.94 84.97L330.46 84.61L327.96 84.36L325.43 84.2L322.87 84.15L320.31 84.2L317.78 84.36Z" id="c1r5Je1JRf"></path><path d="M356.65 446.2C357.81 451.67 362.64 455.4 368.01 455.4C368.82 455.4 369.64 455.32 370.46 455.14C377.27 453.7 384.66 452.48 392.4 451.5C398.77 450.72 403.31 444.91 402.51 438.53C401.71 432.15 395.96 427.54 389.53 428.42C381.12 429.46 373.06 430.8 365.59 432.39C359.31 433.72 355.31 439.9 356.65 446.2Z" id="b32VbRHeA"></path><path d="M437.36 448.25C437.53 448.25 437.69 448.25 437.87 448.23C440.2 448.14 458.82 447.36 461.15 447.27C467.56 446.98 472.53 441.53 472.23 435.12C471.94 428.69 465.96 423.68 460.09 424.03C457.77 424.12 439.19 424.89 436.87 424.99C430.45 425.26 425.47 430.68 425.75 437.11C426 443.36 431.17 448.25 437.36 448.25Z" id="a2MdLl81xf"></path><path d="M242.58 503.51C237.19 507.01 235.66 514.21 239.16 519.61C241.38 523.04 245.13 524.91 248.93 524.91C251.1 524.91 253.29 524.3 255.26 523.03C261.92 518.71 268.57 514.05 274.98 509.21C280.09 505.34 281.12 498.05 277.26 492.92C273.38 487.83 266.11 486.76 260.96 490.64C254.98 495.15 248.8 499.49 242.58 503.51Z" id="chRaOC45U"></path><path d="M504.56 420.05C498.27 421.34 494.22 427.5 495.52 433.8C496.66 439.3 501.5 443.08 506.91 443.08C507.69 443.08 508.48 443 509.27 442.84C519.07 440.81 527.02 437.58 533.65 432.91C533.81 432.8 535.06 431.89 535.21 431.77C540.33 427.89 541.34 420.59 537.47 415.48C533.58 410.36 526.3 409.36 521.17 413.22C521.11 413.27 520.79 413.5 520.22 413.93C514.19 417.1 508.97 419.14 504.56 420.05Z" id="e3yEmr8PrJ"></path><path d="M94.88 490.62C88.72 488.89 82.29 492.59 80.62 498.81C79.15 504.21 78.28 509.72 78 515.16C77.94 516.49 77.9 517.84 77.9 519.26C77.92 521.54 78.02 523.82 78.24 526.09C78.86 532.08 83.91 536.54 89.8 536.54C90.19 536.54 90.58 536.51 91 536.48C97.39 535.82 102.04 530.12 101.4 523.72C101.24 522.19 101.18 520.65 101.17 519.18C101.17 518.22 101.21 517.25 101.25 516.3C101.44 512.53 102.04 508.68 103.07 504.89C104.75 498.69 101.08 492.3 94.88 490.62Z" id="a8O9AQJcJF"></path><path d="M492.21 325.61C486.02 327.35 482.42 333.78 484.18 339.96C485.62 345.09 490.29 348.44 495.36 348.44C496.42 348.44 497.48 348.3 498.52 347.99C504.57 346.3 510.79 345.76 516.84 346.58C523.38 347.39 529.08 342.96 529.93 336.61C530.79 330.22 526.32 324.37 519.96 323.51C510.73 322.27 501.3 323.03 492.21 325.61Z" id="b2c2tiXyM"></path><path d="M550.79 395.68C551.94 396.04 553.08 396.2 554.22 396.2C559.2 396.2 563.79 393 565.33 388C566.48 384.3 567.19 380.54 567.46 376.8C567.52 375.83 567.55 374.85 567.55 373.89C567.55 368.44 566.55 362.99 564.58 357.7C562.35 351.66 555.62 348.61 549.64 350.83C543.6 353.07 540.54 359.77 542.77 365.78C543.77 368.48 544.29 371.21 544.29 373.88C544.28 374.01 544.25 375.1 544.25 375.24C544.11 377.17 543.74 379.1 543.11 381.14C541.21 387.27 544.66 393.79 550.79 395.68Z" id="g11l4nw8Pi"></path><path d="M182.72 534.21C176.73 536.51 173.75 543.25 176.06 549.25C177.84 553.86 182.24 556.7 186.92 556.7C188.31 556.7 189.73 556.45 191.1 555.92C198.49 553.07 205.93 549.88 213.24 546.46C219.06 543.74 221.56 536.81 218.82 530.99C216.11 525.16 209.2 522.64 203.35 525.38C196.54 528.58 189.59 531.55 182.72 534.21Z" id="a2L1noWBwJ"></path><path d="M124.23 475.54C127.58 473.71 131.15 472.57 134.82 472.17C136.39 471.99 138 471.99 139.55 472.2C146.1 473.05 151.76 468.56 152.6 462.19C153.44 455.82 148.96 449.98 142.59 449.14C139.13 448.69 135.6 448.66 132.23 449.05C125.55 449.78 119.11 451.83 113.08 455.11C107.44 458.19 105.36 465.24 108.44 470.88C110.56 474.77 114.55 476.96 118.67 476.96C120.54 476.96 122.45 476.5 124.23 475.54Z" id="cv38s3gku"></path><path d="M123.85 569.61C126.83 569.97 129.81 570.16 132.8 570.16C136.44 570.16 140.09 569.9 143.73 569.44C150.11 568.63 154.63 562.82 153.82 556.44C153.01 550.07 147.22 545.58 140.83 546.36C136.13 546.96 131.38 547.1 126.68 546.53C125.15 546.33 123.61 546.04 122.1 545.66C115.87 543.99 109.53 547.76 107.91 553.99C106.31 560.21 110.03 566.56 116.25 568.17C118.76 568.82 121.32 569.31 123.85 569.61Z" id="a3WDgA9wRi"></path></defs><g><g><g><use xlink:href="#b4zLnthJh3" opacity="1" fill="#fefefe" fill-opacity="1"></use><g><use xlink:href="#b4zLnthJh3" opacity="1" fill-opacity="0" stroke="#810000" stroke-width="1" stroke-opacity="0"></use></g></g><g><use xlink:href="#cOFZo1pvq" opacity="1" fill="#fefefe" fill-opacity="1"></use><g><use xlink:href="#cOFZo1pvq" opacity="1" fill-opacity="0" stroke="#810000" stroke-width="1" stroke-opacity="0"></use></g></g><g><use xlink:href="#c1r5Je1JRf" opacity="1" fill="#fefefe" fill-opacity="1"></use><g><use xlink:href="#c1r5Je1JRf" opacity="1" fill-opacity="0" stroke="#810000" stroke-width="1" stroke-opacity="0"></use></g></g><g><use xlink:href="#b32VbRHeA" opacity="1" fill="#fefefe" fill-opacity="1"></use><g><use xlink:href="#b32VbRHeA" opacity="1" fill-opacity="0" stroke="#810000" stroke-width="1" stroke-opacity="0"></use></g></g><g><use xlink:href="#a2MdLl81xf" opacity="1" fill="#fefefe" fill-opacity="1"></use><g><use xlink:href="#a2MdLl81xf" opacity="1" fill-opacity="0" stroke="#810000" stroke-width="1" stroke-opacity="0"></use></g></g><g><use xlink:href="#chRaOC45U" opacity="1" fill="#fefefe" fill-opacity="1"></use><g><use xlink:href="#chRaOC45U" opacity="1" fill-opacity="0" stroke="#810000" stroke-width="1" stroke-opacity="0"></use></g></g><g><use xlink:href="#e3yEmr8PrJ" opacity="1" fill="#fefefe" fill-opacity="1"></use><g><use xlink:href="#e3yEmr8PrJ" opacity="1" fill-opacity="0" stroke="#810000" stroke-width="1" stroke-opacity="0"></use></g></g><g><use xlink:href="#a8O9AQJcJF" opacity="1" fill="#fefefe" fill-opacity="1"></use><g><use xlink:href="#a8O9AQJcJF" opacity="1" fill-opacity="0" stroke="#810000" stroke-width="1" stroke-opacity="0"></use></g></g><g><use xlink:href="#b2c2tiXyM" opacity="1" fill="#fefefe" fill-opacity="1"></use><g><use xlink:href="#b2c2tiXyM" opacity="1" fill-opacity="0" stroke="#810000" stroke-width="1" stroke-opacity="0"></use></g></g><g><use xlink:href="#g11l4nw8Pi" opacity="1" fill="#fefefe" fill-opacity="1"></use><g><use xlink:href="#g11l4nw8Pi" opacity="1" fill-opacity="0" stroke="#810000" stroke-width="1" stroke-opacity="0"></use></g></g><g><use xlink:href="#a2L1noWBwJ" opacity="1" fill="#fefefe" fill-opacity="1"></use><g><use xlink:href="#a2L1noWBwJ" opacity="1" fill-opacity="0" stroke="#810000" stroke-width="1" stroke-opacity="0"></use></g></g><g><use xlink:href="#cv38s3gku" opacity="1" fill="#fefefe" fill-opacity="1"></use><g><use xlink:href="#cv38s3gku" opacity="1" fill-opacity="0" stroke="#810000" stroke-width="1" stroke-opacity="0"></use></g></g><g><use xlink:href="#a3WDgA9wRi" opacity="1" fill="#fefefe" fill-opacity="1"></use><g><use xlink:href="#a3WDgA9wRi" opacity="1" fill-opacity="0" stroke="#810000" stroke-width="1" stroke-opacity="0"></use></g></g></g></g></svg>